<?xml version="1.0" encoding="UTF-8" standalone="no"?>
<svg
   version="1.1"
   id="Layer_1"
   x="0px"
   y="0px"
   width="100%"
   viewBox="0 0 219 130"
   enable-background="new 0 0 219 130"
   xml:space="preserve"
   sodipodi:docname="expert.svg"
   inkscape:version="1.2.2 (732a01da63, 2022-12-09)"
   xmlns:inkscape="http://www.inkscape.org/namespaces/inkscape"
   xmlns:sodipodi="http://sodipodi.sourceforge.net/DTD/sodipodi-0.dtd"
   xmlns="http://www.w3.org/2000/svg"
   xmlns:svg="http://www.w3.org/2000/svg"><defs
   id="defs51" /><sodipodi:namedview
   id="namedview49"
   pagecolor="#ffffff"
   bordercolor="#000000"
   borderopacity="0.25"
   inkscape:showpageshadow="2"
   inkscape:pageopacity="0.0"
   inkscape:pagecheckerboard="0"
   inkscape:deskcolor="#d1d1d1"
   showgrid="false"
   inkscape:zoom="0.35730594"
   inkscape:cx="484.17891"
   inkscape:cy="534.55591"
   inkscape:window-width="2560"
   inkscape:window-height="1377"
   inkscape:window-x="-8"
   inkscape:window-y="-8"
   inkscape:window-maximized="1"
   inkscape:current-layer="Layer_1" />
<path
   fill="#f5f5f5"
   opacity="1"
   stroke="none"
   d="m 147,131 c -48.999985,0 -97.499977,0 -145.999974,0 -9e-6,-43.333313 -9e-6,-86.666622 -1.7e-5,-129.9999509 72.999953,-1.6e-5 145.999911,-1.6e-5 218.999901,-3.3e-5 3e-5,43.3332659 3e-5,86.6665489 6e-5,129.9999039 C 195.83333,131 171.66667,131 147,131 M 93.054108,60.701061 c -0.164917,1.063477 -0.329827,2.126953 -0.495102,3.192753 6.578872,0 12.940944,0 19.803124,1.065384 -3.785,0.369606 -7.56626,1.004814 -11.3557,1.05793 -10.442602,0.146378 -10.443953,0.04999 -12.227866,10.71534 2.974122,0.384597 5.974892,1.274322 6.818856,-3.245354 0.169861,-0.909622 1.949455,-1.876518 3.145912,-2.17115 3.994648,-0.983681 8.061498,-1.674095 12.263298,-2.509186 -0.55117,2.151596 -1.19862,4.679069 -2.01204,7.742531 0.3294,0.09393 0.65881,0.187851 1.91303,0.432098 3.82514,0.0059 7.67263,0.251656 11.46427,-0.101707 1.48976,-0.13884 2.85463,-1.617737 4.27637,-2.486367 -0.22941,-0.409301 -0.45881,-0.818595 -0.68822,-1.22789 -3.39842,-0.17485 -6.79684,-0.349693 -10.19526,-0.524536 0.008,-0.574585 0.0162,-1.14917 0.0243,-1.723755 2.52539,0 5.05106,0.02366 7.57612,-0.0053 4.23899,-0.04863 4.23883,-0.06271 4.5178,-4.858032 -4.48894,0 -8.96762,0.04861 -13.44443,-0.0217 -2.05696,-0.03231 -3.99673,-0.355072 -0.9495,-1.964638 3.94725,0.04888 7.91166,-0.113044 11.83685,0.206665 3.83317,0.31221 5.38338,-1.192077 5.11491,-5.341362 -3.88054,0 -7.65133,0 -10.9795,-0.488338 4.85321,-2.080399 0.33739,-4.364204 0.003,-6.676918 -0.42346,2.588951 -7.44936,2.6558 -3.20988,7.362335 -1.06923,1.404411 -2.13847,2.808819 -3.6099,5.111874 -0.32677,-0.03033 -0.65356,-0.06066 -1.00371,-0.960114 -1.76213,-1.0974 -3.42579,-2.875755 -5.30728,-3.147869 -3.70876,-0.536369 -7.538321,-0.237495 -11.344259,-0.94582 -0.01735,-0.441334 -0.03469,-0.882667 0.433982,-1.82204 4.080666,-1.622723 8.161337,-3.245449 12.242007,-4.868172 -10.850825,-0.503677 -19.63402,3.766022 -27.736948,11.70882 -1.947335,-5.451 -6.245766,-5.594055 -11.850952,-5.046344 -3.487595,-0.0089 -6.993638,0.203178 -10.457863,-0.08587 -3.846566,-0.320938 -5.35891,1.258568 -5.23354,5.142399 4.680927,0 9.165875,0.165626 13.622662,-0.11538 1.127273,-0.07107 2.164688,-1.567184 3.84539,-2.99361 3.336723,2.258663 6.752647,4.203739 11.726257,3.131664 4.596131,1.344505 6.911972,-2.551235 10.837868,-4.276722 0.2416,0.02824 0.483193,0.05648 0.636414,0.738388 m 58.331132,-4.639728 c -0.92429,-0.770047 -1.84856,-1.540089 -2.93001,-2.441082 -0.23135,0.366543 -0.75247,1.192199 -1.27361,2.01786 -0.0392,-0.542435 -0.0785,-1.084869 -0.11772,-1.627304 -4.68528,0 -9.37059,0 -14.57333,-0.194172 -1.12354,0 -2.24707,0 -3.37062,0 0.0423,0.455208 0.0846,0.910412 0.12686,1.36562 1.2551,-0.06453 2.51018,-0.129055 3.85576,0.444027 0.96451,1.118431 1.92902,2.236862 2.1878,3.506096 -1.38156,1.30096 -2.76312,2.601921 -4.94926,4.660514 8.05804,0 14.34787,0 20.6377,0 0.16709,-0.608577 0.33421,-1.217155 0.50132,-1.825733 -2.8248,-0.998764 -5.64958,-1.997528 -8.09224,-3.502483 3.27828,0.626522 6.55654,1.253048 9.7442,2.546451 -0.22351,0.915329 -0.44703,1.830655 -0.79315,3.248059 5.96218,0 11.56937,0.170402 17.14922,-0.144158 1.11246,-0.06271 2.22594,-1.904544 3.0771,-3.110775 0.14926,-0.211528 -1.00435,-1.342453 -1.28386,-2.603851 0.76801,-0.565819 1.53603,-1.131638 2.13425,-1.572372 -2.92688,-0.59383 -5.47238,-1.095971 -8.01141,-1.628891 -3.52411,-0.73967 -7.02065,-1.718567 -10.58176,-2.093312 -0.82216,-0.08651 -1.8584,1.861191 -2.8203,2.892716 0,0 -0.0196,0.02377 -0.61694,0.06279 M 49.490692,76.967369 c 0.163181,-0.0399 0.326359,-0.0798 1.41938,0.02778 2.827233,0.0057 5.657906,0.103698 8.480992,-0.0017 6.306102,-0.235397 13.102123,1.199776 17.785892,-4.946747 0.128403,-0.168502 0.59462,-0.07959 1.184433,-0.139061 1.754608,3.525055 3.965058,6.666146 8.825989,4.652138 -1.48803,-3.413963 -2.924835,-6.710411 -4.536415,-10.407844 -1.76191,0 -4.574425,0 -7.386933,0 0.235116,0.285385 0.470231,0.57077 0.705346,0.856155 -3.124451,2.949478 -6.248902,5.898956 -9.50808,8.975609 -0.662804,-1.218872 -1.07663,-1.979874 -1.944405,-2.987854 -0.166877,0.04273 -0.333763,0.08546 -1.399028,-0.02845 -2.687481,0 -5.374966,0 -8.062447,0 3.534969,-4.429344 11.189594,1.916008 12.789341,-6.690071 -5.778553,0 -11.02618,0 -16.845127,0 -0.669636,3.55915 -1.322498,7.029152 -1.508938,10.690025 m 79.084928,-3.301712 c -0.24966,1.017494 -0.49933,2.034996 -0.76795,3.129768 2.60864,0 4.72947,0 6.80079,0 0.74438,-1.587684 1.40147,-2.989173 2.33563,-4.981628 2.63759,4.861717 6.1769,6.314972 11.29073,4.615707 -1.51572,-1.980537 -2.92931,-3.827621 -4.11705,-5.379623 2.49324,-1.47876 4.50523,-2.672081 6.51721,-3.865395 -4.58916,-1.108749 -8.62964,-0.674934 -12.5369,-1.211433 -5.71985,-0.785393 -8.75007,1.229858 -9.52246,7.692604 m 25.64325,2.922066 c 6.52873,0.88948 6.52873,0.88948 9.40202,-10.152657 -4.05274,-1.333427 -6.54679,-0.02677 -7.53855,4.231392 -0.40807,1.752106 -1.22683,3.408569 -1.86347,5.921265 M 111.85767,51.99028 c -0.27488,0.111496 -0.55694,0.209255 -0.81848,0.346222 -0.0515,0.02695 -0.0238,0.205166 -0.0325,0.313614 0.93677,0.06838 1.87355,0.136753 2.81033,0.205128 -0.005,-0.224568 -0.01,-0.449135 -0.0144,-0.673703 -0.44625,-0.06747 -0.89248,-0.134948 -1.94496,-0.191261 z"
   id="path2" />
<path
   fill="#2e2522"
   opacity="1"
   stroke="none"
   d="m 69.830436,518.18604 c 13.012417,-99.42291 26.024694,-198.8461 37.102034,-283.48342 -84.447137,32.84997 -166.182225,60.00878 -246.46601,98.70384 -24.04622,11.58993 -59.81224,49.62472 -63.22608,85.40651 -16.96187,177.79047 -77.27091,142.79136 -137.04439,127.66247 35.85283,-419.54261 35.87998,-415.75119 245.753933,-421.50926 76.15954,-2.08943 152.154861,-27.0766 222.163717,-61.543006 -6.06164,-19.927491 -7.97447,-11.875012 -7.97447,-11.875012 6.56746,1.192934 13.13509,2.386221 23.51336,-15.565609 3.81098,-19.144922 3.30361,-22.04512 3.30361,-22.04512 -51.374723,97.650707 -12.38942,110.347187 28.95092,111.618167 89.97437,2.7659 179.98615,0.85354 270.20432,0.85354 -5.60681,188.63343 -5.6036,189.18745 -90.79823,191.10037 -50.74819,1.13955 -101.50881,0.20888 -152.26373,0.20888 -0.16269,22.60245 -0.32553,45.20489 -0.48838,67.80734 68.301,6.8778 136.60201,13.7556 204.90285,20.63367 4.61061,16.10043 9.22124,32.20083 13.83185,48.3015 -28.57403,34.16929 -56.00495,92.34466 -85.94581,97.8062 -76.20402,13.90024 -153.53028,4.23436 -241.628911,-5.79646 -14.548376,-18.31227 -18.771358,-24.47489 -23.890583,-28.2846 z"
   id="path4"
   style="stroke-width:28.1174" />
<path
   fill="#332927"
   opacity="1"
   stroke="none"
   d="m -818.28807,409.20412 c 8.31686,29.93549 16.63387,59.87103 29.95481,107.81779 65.50249,-121.02628 128.29726,-237.04988 191.09203,-353.07348 -4.72531,-11.22619 -9.45062,-22.45238 -14.17594,-33.67856 56.52538,0 113.0509,0 148.46151,0 32.38931,145.44589 61.26601,275.11825 91.17222,409.41329 -97.69429,79.22502 -142.1196,-44.33606 -177.38346,-183.00112 -11.85397,2.33945 -21.22394,-1.15812 -23.80456,5.47024 -94.13372,241.78574 -230.71917,185.33034 -357.4583,194.59016 -56.73798,4.14521 -113.62844,0.2905 -181.50194,-8.35707 -17.3628,-16.72613 -22.6283,-13.97765 -26.8483,-0.17796 13.121,-136.49941 26.2422,-272.99886 39.7004,-413.00512 116.94836,0 222.41442,0 338.55094,0 -32.15148,338.53728 -185.99303,88.93021 -257.03834,263.16728 54.01261,0 108.0253,0 172.67832,8.73553 10.64034,8.73521 19.20468,13.86303 19.20468,13.86303 0,0 7.39593,-11.76401 7.39593,-11.76401 z"
   id="path6"
   style="stroke-width:28.1174" />
<path
   fill="#2c2320"
   opacity="1"
   stroke="none"
   d="M 462.52723,411.69899 C 475.55482,171.61132 536.45591,92.337399 651.41259,123.2324 c 78.52751,21.10426 159.73252,4.03928 251.96474,47.65413 -40.43645,46.94139 -80.87319,93.88305 -130.98199,152.05302 23.87111,61.05109 52.28124,133.70983 82.7439,211.6182 -102.77704,66.84397 -173.90953,9.67729 -226.91939,-181.56804 -18.77459,78.37719 -31.98067,133.50755 -46.94122,195.96227 -41.62907,0 -84.25329,0 -136.68126,0 5.39875,-43.06504 10.41646,-83.09051 17.92986,-137.25299 z"
   id="path8"
   style="stroke-width:28.1174" />
<path
   fill="#dad8d7"
   opacity="1"
   stroke="none"
   d="m 955.38501,-98.18779 c -65.8863,-24.64565 -131.77227,-49.2913 -210.06914,-59.41877 -53.65665,11.61708 -94.9027,8.71618 -136.14875,5.81507 -19.38454,-43.99555 -38.76908,-87.99127 -59.20458,-144.24214 -1.05096,-12.25513 -1.27146,-11.65882 2.21689,-15.18817 4.7724,-7.94741 7.68269,-14.77734 7.06444,-16.37336 -2.96458,-7.656 -6.8832,-13.89666 -10.38627,-20.42227 0.077,0.21745 0.25546,0.69103 0.25546,0.69103 94.16455,0 188.32907,0 282.49332,0 0.78874,21.33776 1.5775,42.67549 2.36594,64.01325 10.47367,-32.47902 20.94703,-64.95785 25.59675,-79.37655 21.73484,35.44236 40.31071,65.7335 66.12118,100.74385 9.13291,6.46531 11.03119,8.21136 12.9298,9.9573 -2.42608,-5.97651 -4.85243,-11.95322 -7.27881,-17.92992 18.84605,-39.79346 39.67223,-116.41028 56.19586,-113.00712 71.5707,14.74134 141.8436,53.24821 212.6706,82.3446 51.0291,20.96347 102.1883,40.71619 161.0123,64.07568 -12.023,17.33715 -27.4586,39.59476 -54.5448,77.20923 -72.7928,12.79971 -133.9352,10.24257 -198.3743,-4.1401 -37.9883,-50.99491 -72.6796,-90.1646 -107.3712,-129.33414 -9.52304,50.5233 -19.04572,101.0464 -29.48413,161.21697 -3.84164,22.74453 -8.89002,30.65068 -16.06056,33.36556 z"
   id="path10"
   style="stroke-width:28.1174" />
<path
   fill="#322826"
   opacity="1"
   stroke="none"
   d="m 954.47452,-85.071302 c 8.08103,-15.831368 13.12941,-23.737518 25.62525,-48.456528 50.21243,-13.77538 90.85523,-15.9292 131.49813,-18.08282 61.1421,2.55714 122.2845,5.11428 192.34,3.23196 20.0058,23.34537 43.1909,67.832558 40.1911,76.153434 -17.1066,47.449501 -39.4852,119.901596 -61.8432,122.368537 -112.143,12.373844 -224.8355,5.670742 -344.66245,5.670742 6.95619,-55.75641229 11.44859,-91.762586 16.85117,-140.885325 z"
   id="path12"
   style="stroke-width:28.1174" />
<path
   fill="#302724"
   opacity="1"
   stroke="none"
   d="m 602.07539,-148.82528 c 48.33778,-0.0651 89.58383,2.8358 139.40036,1.17468 65.34288,34.72642 122.11496,74.014798 178.88736,113.303171 -3.35863,23.939629 -6.71726,47.879258 -10.0756,71.818848 -126.41201,0 -252.82401,0 -414.77344,0 43.93676,-80.97886 71.70318,-132.154755 106.56132,-186.296699 z"
   id="path14"
   style="stroke-width:28.1174" />
<path
   fill="#312825"
   opacity="1"
   stroke="none"
   d="m -732.25485,-45.137094 c -21.6795,33.093662 -42.52932,91.946368 -65.18509,94.741969 -89.57186,11.053932 -179.7097,4.538703 -273.78626,4.538703 -2.5197,-152.778237 27.8752,-214.911258 105.18289,-202.286518 69.6235,11.37024 140.08745,3.02651 219.75606,22.69095 11.06123,39.647053 12.54675,59.980895 14.0324,80.314896 z"
   id="path16"
   style="stroke-width:28.1174" />
<path
   fill="#489f57"
   opacity="1"
   stroke="none"
   d="m -281.14452,-118.14876 c -64.42287,72.826349 -110.96631,226.07305 -209.94848,167.901896 -6.60964,-5.282368 -8.97803,0.861048 -8.97803,0.861048 145.23857,-309.317094 321.76196,-477.274214 539.840238,-457.461074 -82.012639,63.83305 -164.025418,127.66621 -257.460388,202.69586 -28.76601,36.13174 -46.10967,61.06702 -63.45334,86.00227 z"
   id="path18"
   style="stroke-width:28.1174" />
<path
   fill="#332927"
   opacity="1"
   stroke="none"
   d="m 151.89012,31.105041 c -4.93398,-17.167608 -4.42661,-14.26741 -4.19599,-12.797622 21.72014,-53.775323 43.20951,-109.020512 78.77667,-164.208029 23.21437,-2.56481 32.35081,-5.18753 41.4874,-7.81029 75.78463,0 151.56943,0 229.55994,0 C 502.914,9.5095036 471.75796,68.683632 394.7195,56.402229 315.83167,43.825838 236.15539,50.19552 151.89012,31.105041 Z"
   id="path20"
   style="stroke-width:28.1174" />
<path
   fill="#271d1a"
   opacity="1"
   stroke="none"
   d="m 119.9041,34.45376 c 0.23507,17.094402 2.1479,9.041923 3.18385,8.014794 -126.8280084,-1.027167 -254.69196,-1.027167 -386.91318,-1.027167 3.32167,-41.92536802 6.63601,-83.759317 17.1776,-138.763331 15.54673,-15.553766 23.8665,-17.937436 32.18613,-20.321136 75.96174,1.8324 152.927684,-9.92441 227.46587,11.17473 37.813815,10.704151 71.249775,80.659291 106.89973,140.92211 z"
   id="path22"
   style="stroke-width:28.1174" />
<path
   fill="#332927"
   opacity="1"
   stroke="none"
   d="m 975.45313,524.79643 c 12.74792,-82.85673 29.20317,-148.017 37.40437,-216.93959 19.9323,-167.50333 70.0573,-218.903248 151.5123,-166.43883 -57.7504,434.35307 -57.7504,434.35307 -188.91667,383.37842 z"
   id="path24"
   style="stroke-width:28.1174" />
<path
   fill="#352c29"
   opacity="1"
   stroke="none"
   d="m -508.87749,52.17838 c 8.80646,-1.564196 11.17485,-7.707612 10.67407,-9.28774 -86.23869,54.317072 -154.89144,-22.19637 -228.00192,-99.536637 -7.53516,-8.825098 -9.02068,-29.15894 -10.91956,-64.853883 93.91445,-44.81054 180.30369,-39.18318 228.24741,173.67826 z"
   id="path26"
   style="stroke-width:28.1174" />
<path
   fill="#e4e5e3"
   opacity="1"
   stroke="none"
   d="m 272.40597,-163.31569 c -13.58436,12.22755 -22.7208,14.85027 -38.59138,13.75933 -106.62618,-181.54298 34.57939,-184.17262 43.09007,-286.01417 6.72999,90.97522 97.48837,180.81324 -4.49869,272.25484 z"
   id="path28"
   style="stroke-width:28.1174" />
<path
   fill="#dad8d7"
   opacity="1"
   stroke="none"
   d="m 549.05325,-308.57446 c -25.08305,2.25267 -50.30751,4.79089 -75.53225,7.3293 -0.84978,-17.90651 -1.69987,-35.81287 -2.54965,-53.71938 22.58096,0 45.16161,0 72.94213,3.81899 5.19958,3.81915 5.02109,3.34557 4.77238,13.264 -0.16406,16.67543 -0.0794,23.43226 0.005,30.1891 0,0 0.2205,-0.59631 0.36217,-0.88201 z"
   id="path30"
   style="stroke-width:28.1174" />
<path
   fill="#e4e5e3"
   opacity="1"
   stroke="none"
   d="m -214.72631,-130.65855 c -8.05482,15.39917 -16.37459,17.78284 -31.03322,20.48002 -11.19463,-0.79744 -16.05013,-1.90848 -28.1453,-5.49487 10.10398,-27.41061 27.44764,-52.34589 51.32963,-78.68209 6.88703,15.95996 7.23554,33.32068 7.84889,63.69694 z"
   id="path32"
   style="stroke-width:28.1174" />
<path
   fill="#e4e5e3"
   opacity="1"
   stroke="none"
   d="m 130.12875,-427.0274 c 15.06037,2.43473 24.02873,5.08895 32.99728,7.74318 0.0961,8.83383 0.19228,17.66762 0.28841,26.50145 -18.82731,-2.68967 -37.6545,-5.37934 -56.48167,-8.06912 0.1768,-4.26602 -0.38058,-11.27646 0.65412,-12.33663 5.25631,-5.38787 10.92524,-9.23342 22.54186,-13.83888 z"
   id="path34"
   style="stroke-width:28.1174" />
<path
   fill="#312825"
   opacity="1"
   stroke="none"
   d="m -822.84992,404.3464 c 4.56185,4.85772 -2.83408,16.62173 -2.83408,16.62173 0,0 -8.56434,-5.12782 -10.17697,-10.78263 1.74142,-7.33517 5.09547,-9.01584 13.01105,-5.8391 z"
   id="path36"
   style="stroke-width:28.1174" />
<path
   fill="#312825"
   opacity="1"
   stroke="none"
   d="m -1134.093,551.96157 c -0.467,-17.55385 4.7985,-20.30233 12.8174,-6.47715 -1.5713,7.09211 -4.8508,8.6617 -12.8174,6.47715 z"
   id="path38"
   style="stroke-width:28.1174" />
<path
   fill="#2e2523"
   opacity="1"
   stroke="none"
   d="m 68.162615,528.72828 c 6.787046,-6.73253 11.010028,-0.56991 16.264793,14.78587 -4.692025,3.14586 -11.3124,-0.54891 -16.264793,-14.78587 z"
   id="path40"
   style="stroke-width:28.1174" />
<path
   fill="#f5f5f5"
   opacity="1"
   stroke="none"
   d="m 1108.3009,-163.43618 c -37.3459,13.97915 -77.9887,16.13297 -127.28571,20.26107 0.86879,-48.54881 10.39147,-99.07191 19.91451,-149.59521 34.6916,39.16954 69.3829,78.33923 107.3712,129.33414 z"
   id="path42"
   style="stroke-width:28.1174" />
<path
   fill="#f5f5f5"
   opacity="1"
   stroke="none"
   d="m 931.09836,-269.52664 c 2.66926,5.58487 5.09561,11.56158 7.52169,17.53809 -1.89861,-1.74594 -3.79689,-3.49199 -6.92735,-10.72468 -1.2322,-5.48677 -0.83752,-6.42161 -0.59434,-6.81341 z"
   id="path44"
   style="stroke-width:28.1174" />
<path
   fill="#f5f5f5"
   opacity="1"
   stroke="none"
   d="m 552.17943,-311.2218 c -3.573,-3.22749 -3.65763,-9.98432 -3.57055,-26.87732 3.75179,-3.3927 7.67041,2.84796 10.63499,10.50396 0.61825,1.59602 -2.29204,8.42595 -7.06444,16.37336 z"
   id="path46"
   style="stroke-width:28.1174" />
</svg>
