<svg version="1.1" id="Layer_1" xmlns="http://www.w3.org/2000/svg" xmlns:xlink="http://www.w3.org/1999/xlink" x="0px" y="0px"
	 width="100%" viewBox="0 0 1280 176" enable-background="new 0 0 1280 176" xml:space="preserve">
<path fill="#FEFEFE" opacity="1.000000" stroke="none" 
	d="
M959.000000,177.000000 
	C639.333313,177.000000 320.166656,177.000000 1.000000,177.000000 
	C1.000000,118.333336 1.000000,59.666668 1.000000,1.000000 
	C427.666656,1.000000 854.333313,1.000000 1281.000000,1.000000 
	C1281.000000,59.666668 1281.000000,118.333336 1281.000000,177.000000 
	C1173.833374,177.000000 1066.666626,177.000000 959.000000,177.000000 
M118.974411,76.500114 
	C119.072266,90.164955 119.144859,103.830032 119.273170,117.494591 
	C119.554749,147.484558 138.208694,168.568787 167.894730,172.490860 
	C191.022354,175.546417 213.921234,163.522873 223.893784,143.087357 
	C234.318848,121.724495 229.900726,95.096275 213.258606,78.844078 
	C197.363358,63.321270 177.642166,62.846619 157.395981,64.342491 
	C157.395981,72.643547 157.395981,80.698647 157.395981,88.968636 
	C164.121307,88.968636 170.447357,88.777191 176.757294,89.014473 
	C185.736771,89.352135 193.209595,92.965515 198.586563,100.314316 
	C205.930252,110.351006 205.919998,125.947433 198.691589,136.023071 
	C191.492432,146.057877 177.202560,150.167664 164.022720,145.993851 
	C152.236694,142.261429 145.047684,132.028702 144.903320,118.513084 
	C144.520615,82.686966 144.197586,46.860214 143.856522,11.033663 
	C143.831802,8.435872 143.853287,5.837641 143.853287,3.534627 
	C134.810364,3.534627 126.581703,3.534627 118.701897,3.534627 
	C118.701897,15.860471 118.666420,27.682369 118.711800,39.503960 
	C118.757858,51.502823 118.883728,63.501385 118.974411,76.500114 
M105.877037,89.399651 
	C106.321045,81.298660 106.765053,73.197670 107.223625,64.830917 
	C98.934372,64.830917 91.791817,64.720993 84.653725,64.852875 
	C67.683609,65.166405 50.669075,64.951324 33.761147,66.174950 
	C19.661121,67.195366 10.015048,76.324867 8.030406,88.131348 
	C5.636318,102.373589 11.132719,113.359497 24.444944,120.155533 
	C28.409756,122.179604 32.705460,123.659637 36.982159,124.949150 
	C49.871246,128.835464 62.840225,132.456146 75.744545,136.293091 
	C79.112350,137.294495 82.970055,138.524185 82.366043,143.058929 
	C81.762505,147.590149 77.784325,147.093506 74.469200,147.136398 
	C54.153049,147.399414 33.836689,147.646774 13.520330,147.893860 
	C11.764369,147.915207 10.007923,147.896683 8.324451,147.896683 
	C8.324451,156.554398 8.324451,164.477951 8.324451,172.255005 
	C8.942513,172.544785 9.232080,172.801147 9.518432,172.797607 
	C32.994198,172.507126 56.491467,172.706482 79.937546,171.706558 
	C95.364601,171.048630 106.037628,161.302170 107.906265,148.456818 
	C110.268959,132.215225 103.938644,121.834465 87.789291,115.566566 
	C85.313545,114.605690 82.783974,113.764626 80.238098,113.006470 
	C67.813629,109.306465 55.347813,105.742294 42.958588,101.928764 
	C39.310959,100.805992 34.192696,100.221794 34.925533,94.797035 
	C35.658760,89.369377 40.686989,90.160194 44.533352,90.111481 
	C64.683441,89.856293 84.835312,89.742348 105.877037,89.399651 
M239.232941,126.048447 
	C239.407196,126.691132 239.611481,127.327354 239.751419,127.977432 
	C246.349045,158.628311 276.855164,177.411041 307.008453,169.299515 
	C308.394714,168.926605 310.611664,167.726532 310.643555,166.846512 
	C310.928833,158.979187 310.809875,151.097214 310.809875,142.828384 
	C307.869080,143.568497 305.972412,144.135590 304.039124,144.517303 
	C294.116364,146.476654 284.453247,146.418930 275.786041,140.243698 
	C264.568512,132.251419 260.580078,116.605492 266.322113,103.521973 
	C271.779480,91.087196 285.634247,84.403389 300.046112,87.252846 
	C313.510651,89.915001 322.693573,100.833282 322.941833,114.912552 
	C323.229584,131.232773 323.249725,147.557632 323.414948,163.880173 
	C323.434448,165.806839 323.636139,167.731659 323.739075,169.422012 
	C332.411804,169.422012 340.500122,169.422012 348.169250,169.422012 
	C348.169250,150.515564 348.651154,132.035294 348.045044,113.590775 
	C347.317627,91.453094 337.627472,74.182724 316.434875,65.840462 
	C294.469879,57.194149 273.378784,59.747173 255.479492,76.076309 
	C241.104294,89.190514 236.720749,106.202591 239.232941,126.048447 
M554.508789,129.721313 
	C571.001587,129.721283 587.494446,129.717102 603.987244,129.723267 
	C610.403137,129.725662 610.403137,129.736282 609.440125,137.169342 
	C586.170837,137.169342 562.810669,137.169342 539.194275,137.169342 
	C539.194275,143.948822 539.187378,150.095840 539.195862,156.242813 
	C539.210144,166.576813 542.549988,169.891098 553.056213,169.898895 
	C576.712524,169.916458 600.368896,169.909760 624.025208,169.892944 
	C625.466064,169.891907 626.906860,169.716675 628.502686,169.612366 
	C628.502686,165.348953 628.502686,161.433914 628.502686,157.013412 
	C626.462463,157.013412 624.677185,157.013397 622.891907,157.013412 
	C602.734070,157.013504 582.576172,157.015091 562.418335,157.012878 
	C555.295715,157.012100 554.696777,156.137558 556.884888,148.407318 
	C579.870239,148.407318 602.971375,148.407318 625.870178,148.407318 
	C626.228516,147.728867 626.505981,147.446365 626.509705,147.160309 
	C626.580688,141.667130 626.652405,136.173553 626.657959,130.680008 
	C626.668091,120.612663 622.970764,116.979103 612.724365,116.952255 
	C605.947571,116.934494 599.170715,116.948891 592.381104,116.948891 
	C592.381104,113.963875 592.381104,111.569756 592.381104,108.736237 
	C610.288818,108.736237 627.871643,108.736237 645.499390,108.736237 
	C645.499390,104.245132 645.499390,100.212013 645.499390,96.401749 
	C604.214539,96.401749 563.330811,96.401749 522.547852,96.401749 
	C522.547852,100.720947 522.547852,104.631355 522.547852,109.074265 
	C540.462646,109.074265 558.023987,109.074265 575.447632,109.074265 
	C575.447632,112.020874 575.447632,114.397133 575.447632,117.176186 
	C563.285217,117.176186 551.529114,117.176186 539.747437,117.176186 
	C539.747437,121.497116 539.747437,125.394348 539.747437,129.721146 
	C544.580872,129.721146 549.047546,129.721146 554.508789,129.721313 
M851.636230,58.097958 
	C847.724487,48.143764 840.269653,42.095867 830.033264,40.043041 
	C824.414307,38.916191 818.396606,38.566177 812.714600,39.220226 
	C801.310242,40.532982 791.991455,45.902821 787.570435,57.042706 
	C783.190613,68.078873 783.952637,79.016014 791.346863,88.723381 
	C805.160828,106.858871 845.105957,104.729927 852.183411,79.624016 
	C852.490784,78.533676 854.004456,77.054565 855.010925,77.010605 
	C860.760315,76.759483 866.526245,76.888657 872.857422,76.888657 
	C872.857422,87.563240 872.857422,97.609390 872.857422,107.683914 
	C878.524536,107.683914 883.604248,107.683914 888.775330,107.683914 
	C888.775330,84.873833 888.775330,62.338696 888.775330,39.653465 
	C883.375610,39.653465 878.289673,39.653465 872.656128,39.653465 
	C872.656128,47.828583 872.656128,55.740959 872.656128,63.817768 
	C865.825684,63.817768 859.546570,63.817768 853.277588,63.817768 
	C852.790771,62.055847 852.347961,60.453484 851.636230,58.097958 
M848.500000,169.899826 
	C861.920654,169.899826 875.341309,169.899826 888.773682,169.899826 
	C888.773682,151.039017 888.773682,132.819382 888.773682,114.463043 
	C883.376709,114.463043 878.300781,114.463043 872.625122,114.463043 
	C872.625122,119.124626 872.625122,123.523102 872.625122,128.048965 
	C855.782288,128.048965 839.542297,128.048965 822.711792,128.048965 
	C822.711792,123.412407 822.711792,119.015129 822.711792,114.543350 
	C816.899231,114.543350 811.683472,114.543350 806.118530,114.543350 
	C806.118530,129.358551 806.069702,143.816757 806.136963,158.274414 
	C806.177002,166.869675 809.270996,169.847595 818.036682,169.889145 
	C827.857544,169.935684 837.678894,169.899811 848.500000,169.899826 
M1102.122681,94.814766 
	C1104.198364,94.215004 1106.314331,93.727234 1108.343140,92.997017 
	C1120.321167,88.685684 1126.219971,79.702072 1124.934570,67.202446 
	C1124.587769,63.828289 1123.215942,60.559528 1122.204712,56.838634 
	C1127.407837,56.838634 1132.510620,56.838634 1137.689209,56.838634 
	C1137.689209,52.411312 1137.689209,48.396137 1137.689209,43.976883 
	C1124.350952,43.976883 1111.426270,43.976883 1097.975708,43.976883 
	C1097.975708,40.683750 1097.975708,37.794449 1097.975708,34.865944 
	C1092.166504,34.865944 1086.898315,34.865944 1081.443237,34.865944 
	C1081.259521,38.047455 1081.092285,40.945248 1080.907471,44.145390 
	C1074.051147,44.145390 1067.578857,44.145393 1061.106567,44.145393 
	C1054.529541,44.145393 1047.952637,44.145390 1041.599609,44.145390 
	C1041.599609,48.919342 1041.599609,52.818279 1041.599609,57.053749 
	C1047.103516,57.053749 1052.191772,57.053749 1057.416992,57.053749 
	C1047.300903,80.497368 1063.063477,93.744011 1080.404419,95.077232 
	C1087.318237,95.608772 1094.318237,95.016350 1102.122681,94.814766 
M504.786774,62.500088 
	C504.786774,54.915054 504.786774,47.330021 504.786774,39.629547 
	C498.968506,39.629547 493.886383,39.629547 488.169495,39.629547 
	C488.169495,50.100262 488.169495,60.302608 488.169495,70.960129 
	C479.469879,70.960129 471.397919,70.960129 463.205383,70.960129 
	C463.205383,75.352974 463.205383,79.265724 463.205383,83.864304 
	C471.637268,83.864304 479.839569,83.864304 488.540405,83.864304 
	C488.540405,112.924469 488.540405,141.299561 488.540405,169.593781 
	C494.167450,169.593781 499.253815,169.593781 504.786652,169.593781 
	C504.786652,134.017624 504.786652,98.758842 504.786774,62.500088 
M938.629333,97.117004 
	C941.335144,93.557419 944.040955,89.997833 946.966248,86.149506 
	C953.373230,98.018051 963.277405,106.162468 975.882507,111.711311 
	C978.761902,107.958405 981.413147,104.502808 984.159729,100.922867 
	C962.027344,90.701500 953.457153,72.781662 956.435120,54.099953 
	C963.436951,54.099953 970.526184,54.099953 977.662964,54.099953 
	C977.662964,49.606812 977.662964,45.580635 977.662964,41.259197 
	C966.965454,41.259197 956.656738,41.259197 946.348083,41.259197 
	C936.093750,41.259197 925.839417,41.259197 915.584778,41.259197 
	C915.584778,45.957256 915.584778,49.874786 915.584778,54.302402 
	C923.155518,54.302402 930.405762,54.302402 937.763550,54.302402 
	C938.381104,62.921173 937.202271,70.746124 933.885498,78.164543 
	C929.028564,89.027794 920.115845,95.745880 909.204712,100.881874 
	C912.186096,104.746208 914.794006,108.126404 918.299072,112.669472 
	C925.046753,107.555626 931.592896,102.594543 938.629333,97.117004 
M587.395447,36.939163 
	C577.830688,36.623791 568.424377,37.253132 559.740967,41.846832 
	C550.816345,46.568115 546.361877,54.092278 546.398254,64.114311 
	C546.433838,73.939316 550.676025,81.770523 559.605713,85.903656 
	C575.687256,93.347031 592.201660,93.362221 608.314697,85.976341 
	C617.479370,81.775444 621.768738,73.777405 621.714905,63.792454 
	C621.662231,54.019226 617.456787,46.030529 608.418701,42.123886 
	C602.156555,39.417095 595.072388,38.611877 587.395447,36.939163 
M1053.544189,135.235214 
	C1047.227173,148.419250 1051.146240,161.997498 1064.038574,167.715561 
	C1080.933960,175.209137 1098.329834,175.037872 1115.371948,167.760712 
	C1121.749390,165.037445 1126.159668,160.033096 1127.992920,153.140900 
	C1131.182861,141.149078 1125.971069,129.987671 1113.933960,125.135849 
	C1098.204102,118.795464 1081.991943,118.755569 1066.251099,124.965164 
	C1061.602661,126.798882 1058.013062,131.316589 1053.544189,135.235214 
M452.876770,92.544685 
	C443.736511,76.531517 445.814301,58.770309 445.473969,41.434410 
	C439.364105,41.434410 433.816956,41.434410 427.555542,41.434410 
	C430.454620,71.064873 425.875122,97.790443 399.516785,116.356773 
	C403.120667,119.923973 406.287292,123.058380 409.609039,126.346313 
	C421.131683,118.683105 429.848572,108.738663 436.765747,96.304260 
	C443.745636,108.970787 452.561798,118.835732 463.220703,125.922241 
	C467.119720,122.571136 470.392303,119.758423 472.713531,117.763382 
	C465.918945,109.230240 459.546570,101.227348 452.876770,92.544685 
M1232.187744,48.408897 
	C1228.215576,45.522259 1224.624512,41.647430 1220.197510,39.940498 
	C1208.490479,35.426678 1196.374268,35.651115 1184.571899,39.967808 
	C1174.248535,43.743568 1168.884155,51.776295 1168.868896,62.482014 
	C1168.853638,73.227661 1174.159058,81.154243 1184.473877,85.063133 
	C1195.412720,89.208565 1206.667114,89.283112 1217.799316,86.080551 
	C1235.094238,81.105072 1241.557007,64.632149 1232.187744,48.408897 
M702.592163,102.918396 
	C707.296997,106.238884 712.001831,109.559372 716.938965,113.043816 
	C720.108704,109.086533 722.746643,105.793190 725.771057,102.017380 
	C700.613159,88.831825 695.939209,66.320297 697.645630,41.424358 
	C691.254883,41.424358 685.849304,41.424358 679.884216,41.424358 
	C681.859619,66.908516 676.645630,88.985100 651.893311,102.076866 
	C654.941162,105.876099 657.600769,109.191353 660.381958,112.658142 
	C672.529663,106.557625 681.865051,97.976646 688.315735,86.806190 
	C693.124084,92.283348 697.589966,97.370415 702.592163,102.918396 
M1252.781738,64.499977 
	C1252.781738,80.920403 1252.781738,97.340836 1252.781738,114.317398 
	C1244.090332,114.317398 1236.031006,114.317398 1227.994995,114.317398 
	C1227.994995,118.794189 1227.994995,122.703072 1227.994995,127.147110 
	C1236.362183,127.147110 1244.418823,127.147110 1252.839844,127.147110 
	C1252.839844,130.618805 1252.839844,133.553223 1252.839844,136.631058 
	C1258.437500,136.631058 1263.643799,136.631058 1268.701294,136.631058 
	C1268.701294,104.097450 1268.701294,71.910980 1268.701294,39.731911 
	C1263.254883,39.731911 1258.188721,39.731911 1252.781616,39.731911 
	C1252.781616,47.887707 1252.781616,55.693840 1252.781738,64.499977 
M738.336304,77.499924 
	C738.336304,93.915749 738.336304,110.331573 738.336304,126.599060 
	C744.331116,126.599060 749.563477,126.599060 755.114380,126.599060 
	C755.114380,111.598091 755.114380,96.997032 755.114380,81.781212 
	C761.147949,81.781212 766.859131,81.781212 772.489563,81.781212 
	C772.489563,77.234413 772.489563,73.314247 772.489563,68.972656 
	C766.592346,68.972656 760.996704,68.972656 754.918335,68.972656 
	C754.918335,58.988247 754.918335,49.421349 754.918335,39.734108 
	C749.196960,39.734108 743.985291,39.734108 738.336548,39.734108 
	C738.336548,52.242008 738.336548,64.370956 738.336304,77.499924 
M965.500000,169.901443 
	C981.588562,169.901443 997.677124,169.901443 1013.921997,169.901443 
	C1013.921997,165.315643 1013.921997,161.275406 1013.921997,156.785507 
	C991.547180,156.785507 969.498169,156.785507 946.872498,156.785507 
	C946.872498,145.130875 946.872498,133.915573 946.872498,122.476768 
	C941.075989,122.476768 935.864990,122.476768 930.177307,122.476768 
	C930.177307,134.388550 930.112305,145.993866 930.199341,157.598038 
	C930.260803,165.787811 934.317871,169.791611 942.541565,169.884445 
	C949.860168,169.967072 957.180481,169.901550 965.500000,169.901443 
M733.500000,156.886719 
	C722.680359,156.886703 711.857056,156.725540 701.043030,156.972260 
	C697.148438,157.061127 695.837891,156.036118 695.961792,151.978958 
	C696.260132,142.214340 696.058411,132.434464 696.058411,122.421661 
	C690.470825,122.421661 685.400513,122.421661 679.745667,122.421661 
	C679.745667,133.928345 679.732483,145.195084 679.749695,156.461792 
	C679.764893,166.437119 683.236267,169.881287 693.313049,169.889053 
	C713.953613,169.904968 734.594116,169.894608 755.234680,169.895035 
	C756.829102,169.895065 758.423523,169.895035 760.085693,169.895035 
	C760.085693,165.248566 760.085693,161.318497 760.085693,156.886688 
	C751.392212,156.886688 742.946106,156.886688 733.500000,156.886719 
M1259.487793,169.901138 
	C1263.749023,169.901138 1268.010132,169.901138 1272.257568,169.901138 
	C1272.257568,165.192291 1272.257568,161.164047 1272.257568,156.586182 
	C1248.632690,156.586182 1225.424683,156.586182 1201.775146,156.586182 
	C1201.775146,147.443375 1201.775146,138.852402 1201.775146,130.254730 
	C1196.098511,130.254730 1190.882812,130.254730 1185.296387,130.254730 
	C1185.296387,139.067520 1185.280884,147.529404 1185.300415,155.991196 
	C1185.324219,166.237762 1188.937622,169.894867 1199.066406,169.901199 
	C1218.875122,169.913559 1238.683838,169.902466 1259.487793,169.901138 
M1011.979736,78.500000 
	C1011.979736,65.583267 1011.979736,52.666534 1011.979736,39.797302 
	C1006.097351,39.797302 1000.892883,39.797302 995.757385,39.797302 
	C995.757385,68.982986 995.757385,97.713631 995.757385,126.538849 
	C1001.227539,126.538849 1006.326660,126.538849 1011.979736,126.538849 
	C1011.979736,110.700127 1011.979736,95.100060 1011.979736,78.500000 
M1027.980347,104.631996 
	C1027.980347,107.748886 1027.980347,110.865784 1027.980347,114.003616 
	C1069.365723,114.003616 1110.194702,114.003616 1151.169678,114.003616 
	C1151.169678,109.876572 1151.169678,106.120537 1151.169678,102.344902 
	C1150.499634,102.129066 1150.044800,101.854492 1149.589600,101.854095 
	C1109.981812,101.819962 1070.374023,101.794235 1030.766357,101.870987 
	C1029.841553,101.872772 1028.918945,103.044090 1027.980347,104.631996 
M1211.108154,125.202858 
	C1211.108154,119.606529 1211.108154,114.010201 1211.108154,108.128983 
	C1224.590576,107.893105 1237.530518,108.534050 1250.366089,104.792198 
	C1249.891113,100.627846 1249.468628,96.922142 1249.200195,94.568924 
	C1219.316040,94.568924 1190.174072,94.568924 1160.876099,94.568924 
	C1160.876099,99.904457 1160.876099,103.830246 1160.876099,108.292969 
	C1172.349487,108.292969 1183.573608,108.292969 1194.995361,108.292969 
	C1194.995361,111.815239 1194.995483,114.800545 1194.995483,117.785851 
	C1194.995483,120.711502 1194.995361,123.637154 1194.995361,127.191360 
	C1200.776978,126.800903 1205.826782,126.459862 1211.108154,125.202858 
z"/>
<path fill="#03A1DE" opacity="1.000000" stroke="none" 
	d="
M118.974533,76.000092 
	C118.883728,63.501385 118.757858,51.502823 118.711800,39.503960 
	C118.666420,27.682369 118.701897,15.860471 118.701897,3.534627 
	C126.581703,3.534627 134.810364,3.534627 143.853287,3.534627 
	C143.853287,5.837641 143.831802,8.435872 143.856522,11.033663 
	C144.197586,46.860214 144.520615,82.686966 144.903320,118.513084 
	C145.047684,132.028702 152.236694,142.261429 164.022720,145.993851 
	C177.202560,150.167664 191.492432,146.057877 198.691589,136.023071 
	C205.919998,125.947433 205.930252,110.351006 198.586563,100.314316 
	C193.209595,92.965515 185.736771,89.352135 176.757294,89.014473 
	C170.447357,88.777191 164.121307,88.968636 157.395981,88.968636 
	C157.395981,80.698647 157.395981,72.643547 157.395981,64.342491 
	C177.642166,62.846619 197.363358,63.321270 213.258606,78.844078 
	C229.900726,95.096275 234.318848,121.724495 223.893784,143.087357 
	C213.921234,163.522873 191.022354,175.546417 167.894730,172.490860 
	C138.208694,168.568787 119.554749,147.484558 119.273170,117.494591 
	C119.144859,103.830032 119.072266,90.164955 118.974533,76.000092 
z"/>
<path fill="#03A1DE" opacity="1.000000" stroke="none" 
	d="
M105.431801,89.489479 
	C84.835312,89.742348 64.683441,89.856293 44.533352,90.111481 
	C40.686989,90.160194 35.658760,89.369377 34.925533,94.797035 
	C34.192696,100.221794 39.310959,100.805992 42.958588,101.928764 
	C55.347813,105.742294 67.813629,109.306465 80.238098,113.006470 
	C82.783974,113.764626 85.313545,114.605690 87.789291,115.566566 
	C103.938644,121.834465 110.268959,132.215225 107.906265,148.456818 
	C106.037628,161.302170 95.364601,171.048630 79.937546,171.706558 
	C56.491467,172.706482 32.994198,172.507126 9.518432,172.797607 
	C9.232080,172.801147 8.942513,172.544785 8.324451,172.255005 
	C8.324451,164.477951 8.324451,156.554398 8.324451,147.896683 
	C10.007923,147.896683 11.764369,147.915207 13.520330,147.893860 
	C33.836689,147.646774 54.153049,147.399414 74.469200,147.136398 
	C77.784325,147.093506 81.762505,147.590149 82.366043,143.058929 
	C82.970055,138.524185 79.112350,137.294495 75.744545,136.293091 
	C62.840225,132.456146 49.871246,128.835464 36.982159,124.949150 
	C32.705460,123.659637 28.409756,122.179604 24.444944,120.155533 
	C11.132719,113.359497 5.636318,102.373589 8.030406,88.131348 
	C10.015048,76.324867 19.661121,67.195366 33.761147,66.174950 
	C50.669075,64.951324 67.683609,65.166405 84.653725,64.852875 
	C91.791817,64.720993 98.934372,64.830917 107.223625,64.830917 
	C106.765053,73.197670 106.321045,81.298660 105.431801,89.489479 
z"/>
<path fill="#04A1DE" opacity="1.000000" stroke="none" 
	d="
M239.169327,125.620461 
	C236.720749,106.202591 241.104294,89.190514 255.479492,76.076309 
	C273.378784,59.747173 294.469879,57.194149 316.434875,65.840462 
	C337.627472,74.182724 347.317627,91.453094 348.045044,113.590775 
	C348.651154,132.035294 348.169250,150.515564 348.169250,169.422012 
	C340.500122,169.422012 332.411804,169.422012 323.739075,169.422012 
	C323.636139,167.731659 323.434448,165.806839 323.414948,163.880173 
	C323.249725,147.557632 323.229584,131.232773 322.941833,114.912552 
	C322.693573,100.833282 313.510651,89.915001 300.046112,87.252846 
	C285.634247,84.403389 271.779480,91.087196 266.322113,103.521973 
	C260.580078,116.605492 264.568512,132.251419 275.786041,140.243698 
	C284.453247,146.418930 294.116364,146.476654 304.039124,144.517303 
	C305.972412,144.135590 307.869080,143.568497 310.809875,142.828384 
	C310.809875,151.097214 310.928833,158.979187 310.643555,166.846512 
	C310.611664,167.726532 308.394714,168.926605 307.008453,169.299515 
	C276.855164,177.411041 246.349045,158.628311 239.751419,127.977432 
	C239.611481,127.327354 239.407196,126.691132 239.169327,125.620461 
z"/>
<path fill="#5A5B5F" opacity="1.000000" stroke="none" 
	d="
M554.011536,129.721222 
	C549.047546,129.721146 544.580872,129.721146 539.747437,129.721146 
	C539.747437,125.394348 539.747437,121.497116 539.747437,117.176186 
	C551.529114,117.176186 563.285217,117.176186 575.447632,117.176186 
	C575.447632,114.397133 575.447632,112.020874 575.447632,109.074265 
	C558.023987,109.074265 540.462646,109.074265 522.547852,109.074265 
	C522.547852,104.631355 522.547852,100.720947 522.547852,96.401749 
	C563.330811,96.401749 604.214539,96.401749 645.499390,96.401749 
	C645.499390,100.212013 645.499390,104.245132 645.499390,108.736237 
	C627.871643,108.736237 610.288818,108.736237 592.381104,108.736237 
	C592.381104,111.569756 592.381104,113.963875 592.381104,116.948891 
	C599.170715,116.948891 605.947571,116.934494 612.724365,116.952255 
	C622.970764,116.979103 626.668091,120.612663 626.657959,130.680008 
	C626.652405,136.173553 626.580688,141.667130 626.509705,147.160309 
	C626.505981,147.446365 626.228516,147.728867 625.870178,148.407318 
	C602.971375,148.407318 579.870239,148.407318 556.884888,148.407318 
	C554.696777,156.137558 555.295715,157.012100 562.418335,157.012878 
	C582.576172,157.015091 602.734070,157.013504 622.891907,157.013412 
	C624.677185,157.013397 626.462463,157.013412 628.502686,157.013412 
	C628.502686,161.433914 628.502686,165.348953 628.502686,169.612366 
	C626.906860,169.716675 625.466064,169.891907 624.025208,169.892944 
	C600.368896,169.909760 576.712524,169.916458 553.056213,169.898895 
	C542.549988,169.891098 539.210144,166.576813 539.195862,156.242813 
	C539.187378,150.095840 539.194275,143.948822 539.194275,137.169342 
	C562.810669,137.169342 586.170837,137.169342 609.440125,137.169342 
	C610.403137,129.736282 610.403137,129.725662 603.987244,129.723267 
	C587.494446,129.717102 571.001587,129.721283 554.011536,129.721222 
z"/>
<path fill="#57585C" opacity="1.000000" stroke="none" 
	d="
M851.770752,58.474537 
	C852.347961,60.453484 852.790771,62.055847 853.277588,63.817768 
	C859.546570,63.817768 865.825684,63.817768 872.656128,63.817768 
	C872.656128,55.740959 872.656128,47.828583 872.656128,39.653465 
	C878.289673,39.653465 883.375610,39.653465 888.775330,39.653465 
	C888.775330,62.338696 888.775330,84.873833 888.775330,107.683914 
	C883.604248,107.683914 878.524536,107.683914 872.857422,107.683914 
	C872.857422,97.609390 872.857422,87.563240 872.857422,76.888657 
	C866.526245,76.888657 860.760315,76.759483 855.010925,77.010605 
	C854.004456,77.054565 852.490784,78.533676 852.183411,79.624016 
	C845.105957,104.729927 805.160828,106.858871 791.346863,88.723381 
	C783.952637,79.016014 783.190613,68.078873 787.570435,57.042706 
	C791.991455,45.902821 801.310242,40.532982 812.714600,39.220226 
	C818.396606,38.566177 824.414307,38.916191 830.033264,40.043041 
	C840.269653,42.095867 847.724487,48.143764 851.770752,58.474537 
M826.200073,52.881641 
	C823.425781,52.527351 820.639587,51.798710 817.879456,51.886929 
	C808.515930,52.186203 802.733887,58.412540 802.202209,68.388885 
	C801.651489,78.722496 806.767212,85.721085 815.947205,87.192467 
	C825.225708,88.679657 832.523132,84.867645 835.273010,77.097107 
	C838.775208,67.200554 835.536316,57.843533 826.200073,52.881641 
z"/>
<path fill="#595A5E" opacity="1.000000" stroke="none" 
	d="
M848.000000,169.899811 
	C837.678894,169.899811 827.857544,169.935684 818.036682,169.889145 
	C809.270996,169.847595 806.177002,166.869675 806.136963,158.274414 
	C806.069702,143.816757 806.118530,129.358551 806.118530,114.543350 
	C811.683472,114.543350 816.899231,114.543350 822.711792,114.543350 
	C822.711792,119.015129 822.711792,123.412407 822.711792,128.048965 
	C839.542297,128.048965 855.782288,128.048965 872.625122,128.048965 
	C872.625122,123.523102 872.625122,119.124626 872.625122,114.463043 
	C878.300781,114.463043 883.376709,114.463043 888.773682,114.463043 
	C888.773682,132.819382 888.773682,151.039017 888.773682,169.899826 
	C875.341309,169.899826 861.920654,169.899826 848.000000,169.899811 
M868.273560,141.019379 
	C853.213867,141.019379 838.154236,141.019379 822.758301,141.019379 
	C822.758301,145.249374 822.925842,148.888840 822.710754,152.505539 
	C822.499939,156.050034 823.982117,157.070084 827.386475,157.035873 
	C841.503479,156.893997 855.622742,156.985245 869.741150,156.955261 
	C870.658081,156.953308 871.574341,156.651733 872.706787,156.451324 
	C872.706787,152.192993 872.565613,148.216003 872.755188,144.254868 
	C872.887329,141.493240 871.661438,140.710693 868.273560,141.019379 
z"/>
<path fill="#58595D" opacity="1.000000" stroke="none" 
	d="
M1101.700928,94.875183 
	C1094.318237,95.016350 1087.318237,95.608772 1080.404419,95.077232 
	C1063.063477,93.744011 1047.300903,80.497368 1057.416992,57.053749 
	C1052.191772,57.053749 1047.103516,57.053749 1041.599609,57.053749 
	C1041.599609,52.818279 1041.599609,48.919342 1041.599609,44.145390 
	C1047.952637,44.145390 1054.529541,44.145393 1061.106567,44.145393 
	C1067.578857,44.145393 1074.051147,44.145390 1080.907471,44.145390 
	C1081.092285,40.945248 1081.259521,38.047455 1081.443237,34.865944 
	C1086.898315,34.865944 1092.166504,34.865944 1097.975708,34.865944 
	C1097.975708,37.794449 1097.975708,40.683750 1097.975708,43.976883 
	C1111.426270,43.976883 1124.350952,43.976883 1137.689209,43.976883 
	C1137.689209,48.396137 1137.689209,52.411312 1137.689209,56.838634 
	C1132.510620,56.838634 1127.407837,56.838634 1122.204712,56.838634 
	C1123.215942,60.559528 1124.587769,63.828289 1124.934570,67.202446 
	C1126.219971,79.702072 1120.321167,88.685684 1108.343140,92.997017 
	C1106.314331,93.727234 1104.198364,94.215004 1101.700928,94.875183 
M1087.776611,57.179180 
	C1084.684082,57.774475 1081.479126,58.037483 1078.523438,59.037289 
	C1073.109375,60.868683 1070.586670,64.836288 1070.655029,70.458046 
	C1070.719482,75.757950 1073.306274,79.738983 1078.445557,81.470825 
	C1085.907104,83.985245 1093.517090,83.987503 1100.987671,81.469627 
	C1106.124512,79.738297 1108.654175,75.798904 1108.889648,70.467522 
	C1109.111938,65.429405 1106.373779,60.845245 1101.364624,59.272884 
	C1097.310547,58.000362 1092.911133,57.828182 1087.776611,57.179180 
z"/>
<path fill="#5C5D61" opacity="1.000000" stroke="none" 
	d="
M504.786713,63.000076 
	C504.786652,98.758842 504.786652,134.017624 504.786652,169.593781 
	C499.253815,169.593781 494.167450,169.593781 488.540405,169.593781 
	C488.540405,141.299561 488.540405,112.924469 488.540405,83.864304 
	C479.839569,83.864304 471.637268,83.864304 463.205383,83.864304 
	C463.205383,79.265724 463.205383,75.352974 463.205383,70.960129 
	C471.397919,70.960129 479.469879,70.960129 488.169495,70.960129 
	C488.169495,60.302608 488.169495,50.100262 488.169495,39.629547 
	C493.886383,39.629547 498.968506,39.629547 504.786774,39.629547 
	C504.786774,47.330021 504.786774,54.915054 504.786713,63.000076 
z"/>
<path fill="#595A5E" opacity="1.000000" stroke="none" 
	d="
M938.384155,97.375229 
	C931.592896,102.594543 925.046753,107.555626 918.299072,112.669472 
	C914.794006,108.126404 912.186096,104.746208 909.204712,100.881874 
	C920.115845,95.745880 929.028564,89.027794 933.885498,78.164543 
	C937.202271,70.746124 938.381104,62.921173 937.763550,54.302402 
	C930.405762,54.302402 923.155518,54.302402 915.584778,54.302402 
	C915.584778,49.874786 915.584778,45.957256 915.584778,41.259197 
	C925.839417,41.259197 936.093750,41.259197 946.348083,41.259197 
	C956.656738,41.259197 966.965454,41.259197 977.662964,41.259197 
	C977.662964,45.580635 977.662964,49.606812 977.662964,54.099953 
	C970.526184,54.099953 963.436951,54.099953 956.435120,54.099953 
	C953.457153,72.781662 962.027344,90.701500 984.159729,100.922867 
	C981.413147,104.502808 978.761902,107.958405 975.882507,111.711311 
	C963.277405,106.162468 953.373230,98.018051 946.966248,86.149506 
	C944.040955,89.997833 941.335144,93.557419 938.384155,97.375229 
z"/>
<path fill="#58595D" opacity="1.000000" stroke="none" 
	d="
M587.875488,36.948090 
	C595.072388,38.611877 602.156555,39.417095 608.418701,42.123886 
	C617.456787,46.030529 621.662231,54.019226 621.714905,63.792454 
	C621.768738,73.777405 617.479370,81.775444 608.314697,85.976341 
	C592.201660,93.362221 575.687256,93.347031 559.605713,85.903656 
	C550.676025,81.770523 546.433838,73.939316 546.398254,64.114311 
	C546.361877,54.092278 550.816345,46.568115 559.740967,41.846832 
	C568.424377,37.253132 577.830688,36.623791 587.875488,36.948090 
M603.977600,60.203236 
	C602.623047,55.678600 599.518677,52.898289 595.102905,51.579659 
	C587.590027,49.336197 580.029358,49.260834 572.576660,51.765816 
	C566.506775,53.805958 563.660217,57.956898 563.715576,64.089897 
	C563.770569,70.182823 566.581543,74.885979 572.852173,76.068359 
	C579.228699,77.270714 586.017883,77.607666 592.453857,76.852837 
	C601.420837,75.801147 604.994568,70.201859 603.977600,60.203236 
z"/>
<path fill="#58595D" opacity="1.000000" stroke="none" 
	d="
M1053.741211,134.919769 
	C1058.013062,131.316589 1061.602661,126.798882 1066.251099,124.965164 
	C1081.991943,118.755569 1098.204102,118.795464 1113.933960,125.135849 
	C1125.971069,129.987671 1131.182861,141.149078 1127.992920,153.140900 
	C1126.159668,160.033096 1121.749390,165.037445 1115.371948,167.760712 
	C1098.329834,175.037872 1080.933960,175.209137 1064.038574,167.715561 
	C1051.146240,161.997498 1047.227173,148.419250 1053.741211,134.919769 
M1103.229492,158.005905 
	C1109.522949,154.830429 1111.821411,151.344284 1111.353760,145.683456 
	C1110.903809,140.236023 1107.769653,135.967361 1101.132690,135.102127 
	C1093.684204,134.131119 1085.906250,134.073029 1078.469971,135.080521 
	C1071.207764,136.064438 1067.887817,140.839828 1067.962646,146.968857 
	C1068.035034,152.889603 1071.749512,157.935806 1078.818481,158.660629 
	C1086.608765,159.459457 1094.582764,158.465454 1103.229492,158.005905 
z"/>
<path fill="#57585C" opacity="1.000000" stroke="none" 
	d="
M453.025482,92.884575 
	C459.546570,101.227348 465.918945,109.230240 472.713531,117.763382 
	C470.392303,119.758423 467.119720,122.571136 463.220703,125.922241 
	C452.561798,118.835732 443.745636,108.970787 436.765747,96.304260 
	C429.848572,108.738663 421.131683,118.683105 409.609039,126.346313 
	C406.287292,123.058380 403.120667,119.923973 399.516785,116.356773 
	C425.875122,97.790443 430.454620,71.064873 427.555542,41.434410 
	C433.816956,41.434410 439.364105,41.434410 445.473969,41.434410 
	C445.814301,58.770309 443.736511,76.531517 453.025482,92.884575 
z"/>
<path fill="#58595D" opacity="1.000000" stroke="none" 
	d="
M1232.411865,48.698967 
	C1241.557007,64.632149 1235.094238,81.105072 1217.799316,86.080551 
	C1206.667114,89.283112 1195.412720,89.208565 1184.473877,85.063133 
	C1174.159058,81.154243 1168.853638,73.227661 1168.868896,62.482014 
	C1168.884155,51.776295 1174.248535,43.743568 1184.571899,39.967808 
	C1196.374268,35.651115 1208.490479,35.426678 1220.197510,39.940498 
	C1224.624512,41.647430 1228.215576,45.522259 1232.411865,48.698967 
M1216.681030,71.170013 
	C1222.275024,63.690105 1220.718384,54.585663 1212.975220,51.524090 
	C1206.093262,48.802952 1198.940552,48.904331 1192.013428,51.634182 
	C1187.256714,53.508686 1185.312500,57.595638 1185.249878,62.373051 
	C1185.184204,67.381226 1187.184082,71.803177 1192.173706,73.486748 
	C1200.288818,76.224884 1208.475464,76.734863 1216.681030,71.170013 
z"/>
<path fill="#58595D" opacity="1.000000" stroke="none" 
	d="
M702.323975,102.687943 
	C697.589966,97.370415 693.124084,92.283348 688.315735,86.806190 
	C681.865051,97.976646 672.529663,106.557625 660.381958,112.658142 
	C657.600769,109.191353 654.941162,105.876099 651.893311,102.076866 
	C676.645630,88.985100 681.859619,66.908516 679.884216,41.424358 
	C685.849304,41.424358 691.254883,41.424358 697.645630,41.424358 
	C695.939209,66.320297 700.613159,88.831825 725.771057,102.017380 
	C722.746643,105.793190 720.108704,109.086533 716.938965,113.043816 
	C712.001831,109.559372 707.296997,106.238884 702.323975,102.687943 
z"/>
<path fill="#56575B" opacity="1.000000" stroke="none" 
	d="
M1252.781738,63.999977 
	C1252.781616,55.693840 1252.781616,47.887707 1252.781616,39.731911 
	C1258.188721,39.731911 1263.254883,39.731911 1268.701294,39.731911 
	C1268.701294,71.910980 1268.701294,104.097450 1268.701294,136.631058 
	C1263.643799,136.631058 1258.437500,136.631058 1252.839844,136.631058 
	C1252.839844,133.553223 1252.839844,130.618805 1252.839844,127.147110 
	C1244.418823,127.147110 1236.362183,127.147110 1227.994995,127.147110 
	C1227.994995,122.703072 1227.994995,118.794189 1227.994995,114.317398 
	C1236.031006,114.317398 1244.090332,114.317398 1252.781738,114.317398 
	C1252.781738,97.340836 1252.781738,80.920403 1252.781738,63.999977 
z"/>
<path fill="#5B5C60" opacity="1.000000" stroke="none" 
	d="
M738.336426,76.999916 
	C738.336548,64.370956 738.336548,52.242008 738.336548,39.734108 
	C743.985291,39.734108 749.196960,39.734108 754.918335,39.734108 
	C754.918335,49.421349 754.918335,58.988247 754.918335,68.972656 
	C760.996704,68.972656 766.592346,68.972656 772.489563,68.972656 
	C772.489563,73.314247 772.489563,77.234413 772.489563,81.781212 
	C766.859131,81.781212 761.147949,81.781212 755.114380,81.781212 
	C755.114380,96.997032 755.114380,111.598091 755.114380,126.599060 
	C749.563477,126.599060 744.331116,126.599060 738.336304,126.599060 
	C738.336304,110.331573 738.336304,93.915749 738.336426,76.999916 
z"/>
<path fill="#595A5E" opacity="1.000000" stroke="none" 
	d="
M965.000000,169.901428 
	C957.180481,169.901550 949.860168,169.967072 942.541565,169.884445 
	C934.317871,169.791611 930.260803,165.787811 930.199341,157.598038 
	C930.112305,145.993866 930.177307,134.388550 930.177307,122.476768 
	C935.864990,122.476768 941.075989,122.476768 946.872498,122.476768 
	C946.872498,133.915573 946.872498,145.130875 946.872498,156.785507 
	C969.498169,156.785507 991.547180,156.785507 1013.921997,156.785507 
	C1013.921997,161.275406 1013.921997,165.315643 1013.921997,169.901443 
	C997.677124,169.901443 981.588562,169.901443 965.000000,169.901428 
z"/>
<path fill="#57585C" opacity="1.000000" stroke="none" 
	d="
M734.000000,156.886703 
	C742.946106,156.886688 751.392212,156.886688 760.085693,156.886688 
	C760.085693,161.318497 760.085693,165.248566 760.085693,169.895035 
	C758.423523,169.895035 756.829102,169.895065 755.234680,169.895035 
	C734.594116,169.894608 713.953613,169.904968 693.313049,169.889053 
	C683.236267,169.881287 679.764893,166.437119 679.749695,156.461792 
	C679.732483,145.195084 679.745667,133.928345 679.745667,122.421661 
	C685.400513,122.421661 690.470825,122.421661 696.058411,122.421661 
	C696.058411,132.434464 696.260132,142.214340 695.961792,151.978958 
	C695.837891,156.036118 697.148438,157.061127 701.043030,156.972260 
	C711.857056,156.725540 722.680359,156.886703 734.000000,156.886703 
z"/>
<path fill="#595A5E" opacity="1.000000" stroke="none" 
	d="
M1258.990234,169.901123 
	C1238.683838,169.902466 1218.875122,169.913559 1199.066406,169.901199 
	C1188.937622,169.894867 1185.324219,166.237762 1185.300415,155.991196 
	C1185.280884,147.529404 1185.296387,139.067520 1185.296387,130.254730 
	C1190.882812,130.254730 1196.098511,130.254730 1201.775146,130.254730 
	C1201.775146,138.852402 1201.775146,147.443375 1201.775146,156.586182 
	C1225.424683,156.586182 1248.632690,156.586182 1272.257568,156.586182 
	C1272.257568,161.164047 1272.257568,165.192291 1272.257568,169.901138 
	C1268.010132,169.901138 1263.749023,169.901138 1258.990234,169.901123 
z"/>
<path fill="#5C5D61" opacity="1.000000" stroke="none" 
	d="
M1011.979736,79.000000 
	C1011.979736,95.100060 1011.979736,110.700127 1011.979736,126.538849 
	C1006.326660,126.538849 1001.227539,126.538849 995.757385,126.538849 
	C995.757385,97.713631 995.757385,68.982986 995.757385,39.797302 
	C1000.892883,39.797302 1006.097351,39.797302 1011.979736,39.797302 
	C1011.979736,52.666534 1011.979736,65.583267 1011.979736,79.000000 
z"/>
<path fill="#55565A" opacity="1.000000" stroke="none" 
	d="
M1027.987793,104.150940 
	C1028.918945,103.044090 1029.841553,101.872772 1030.766357,101.870987 
	C1070.374023,101.794235 1109.981812,101.819962 1149.589600,101.854095 
	C1150.044800,101.854492 1150.499634,102.129066 1151.169678,102.344902 
	C1151.169678,106.120537 1151.169678,109.876572 1151.169678,114.003616 
	C1110.194702,114.003616 1069.365723,114.003616 1027.980347,114.003616 
	C1027.980347,110.865784 1027.980347,107.748886 1027.987793,104.150940 
z"/>
<path fill="#595A5E" opacity="1.000000" stroke="none" 
	d="
M1210.992432,125.660843 
	C1205.826782,126.459862 1200.776978,126.800903 1194.995361,127.191360 
	C1194.995361,123.637154 1194.995483,120.711502 1194.995483,117.785851 
	C1194.995483,114.800545 1194.995361,111.815239 1194.995361,108.292969 
	C1183.573608,108.292969 1172.349487,108.292969 1160.876099,108.292969 
	C1160.876099,103.830246 1160.876099,99.904457 1160.876099,94.568924 
	C1190.174072,94.568924 1219.316040,94.568924 1249.200195,94.568924 
	C1249.468628,96.922142 1249.891113,100.627846 1250.366089,104.792198 
	C1237.530518,108.534050 1224.590576,107.893105 1211.108154,108.128983 
	C1211.108154,114.010201 1211.108154,119.606529 1210.992432,125.660843 
z"/>
<path fill="#FDFDFD" opacity="1.000000" stroke="none" 
	d="
M826.584839,52.995171 
	C835.536316,57.843533 838.775208,67.200554 835.273010,77.097107 
	C832.523132,84.867645 825.225708,88.679657 815.947205,87.192467 
	C806.767212,85.721085 801.651489,78.722496 802.202209,68.388885 
	C802.733887,58.412540 808.515930,52.186203 817.879456,51.886929 
	C820.639587,51.798710 823.425781,52.527351 826.584839,52.995171 
z"/>
<path fill="#FDFDFD" opacity="1.000000" stroke="none" 
	d="
M868.743652,141.019562 
	C871.661438,140.710693 872.887329,141.493240 872.755188,144.254868 
	C872.565613,148.216003 872.706787,152.192993 872.706787,156.451324 
	C871.574341,156.651733 870.658081,156.953308 869.741150,156.955261 
	C855.622742,156.985245 841.503479,156.893997 827.386475,157.035873 
	C823.982117,157.070084 822.499939,156.050034 822.710754,152.505539 
	C822.925842,148.888840 822.758301,145.249374 822.758301,141.019379 
	C838.154236,141.019379 853.213867,141.019379 868.743652,141.019562 
z"/>
<path fill="#FCFCFC" opacity="1.000000" stroke="none" 
	d="
M1088.220703,57.173561 
	C1092.911133,57.828182 1097.310547,58.000362 1101.364624,59.272884 
	C1106.373779,60.845245 1109.111938,65.429405 1108.889648,70.467522 
	C1108.654175,75.798904 1106.124512,79.738297 1100.987671,81.469627 
	C1093.517090,83.987503 1085.907104,83.985245 1078.445557,81.470825 
	C1073.306274,79.738983 1070.719482,75.757950 1070.655029,70.458046 
	C1070.586670,64.836288 1073.109375,60.868683 1078.523438,59.037289 
	C1081.479126,58.037483 1084.684082,57.774475 1088.220703,57.173561 
z"/>
<path fill="#FDFDFD" opacity="1.000000" stroke="none" 
	d="
M604.044495,60.618599 
	C604.994568,70.201859 601.420837,75.801147 592.453857,76.852837 
	C586.017883,77.607666 579.228699,77.270714 572.852173,76.068359 
	C566.581543,74.885979 563.770569,70.182823 563.715576,64.089897 
	C563.660217,57.956898 566.506775,53.805958 572.576660,51.765816 
	C580.029358,49.260834 587.590027,49.336197 595.102905,51.579659 
	C599.518677,52.898289 602.623047,55.678600 604.044495,60.618599 
z"/>
<path fill="#FDFDFD" opacity="1.000000" stroke="none" 
	d="
M1102.853149,158.129181 
	C1094.582764,158.465454 1086.608765,159.459457 1078.818481,158.660629 
	C1071.749512,157.935806 1068.035034,152.889603 1067.962646,146.968857 
	C1067.887817,140.839828 1071.207764,136.064438 1078.469971,135.080521 
	C1085.906250,134.073029 1093.684204,134.131119 1101.132690,135.102127 
	C1107.769653,135.967361 1110.903809,140.236023 1111.353760,145.683456 
	C1111.821411,151.344284 1109.522949,154.830429 1102.853149,158.129181 
z"/>
<path fill="#FDFDFD" opacity="1.000000" stroke="none" 
	d="
M1216.402588,71.435745 
	C1208.475464,76.734863 1200.288818,76.224884 1192.173706,73.486748 
	C1187.184082,71.803177 1185.184204,67.381226 1185.249878,62.373051 
	C1185.312500,57.595638 1187.256714,53.508686 1192.013428,51.634182 
	C1198.940552,48.904331 1206.093262,48.802952 1212.975220,51.524090 
	C1220.718384,54.585663 1222.275024,63.690105 1216.402588,71.435745 
z"/>
</svg>