<svg version="1.1" id="Layer_1" xmlns="http://www.w3.org/2000/svg" xmlns:xlink="http://www.w3.org/1999/xlink" x="0px" y="0px"
	 width="100%" viewBox="0 0 780 411" enable-background="new 0 0 780 411" xml:space="preserve">
<path fill="#FFFFFF" opacity="1.000000" stroke="none" 
	d="
M474.000000,412.000000 
	C316.000000,412.000000 158.500000,412.000000 1.000000,412.000000 
	C1.000000,275.000000 1.000000,138.000000 1.000000,1.000000 
	C261.000000,1.000000 521.000000,1.000000 781.000000,1.000000 
	C781.000000,138.000000 781.000000,275.000000 781.000000,412.000000 
	C678.833313,412.000000 576.666687,412.000000 474.000000,412.000000 
M177.152740,161.785904 
	C173.155167,169.160980 169.157608,176.536057 164.745758,183.368103 
	C136.114426,164.938843 104.528755,157.389984 70.772888,157.978775 
	C65.051987,158.078568 62.214569,161.436554 62.103481,167.949066 
	C61.689171,192.237961 64.184624,216.154312 72.042740,239.273575 
	C78.643784,258.694427 88.530098,276.033203 105.183807,288.722198 
	C120.948059,300.733490 139.096710,304.870056 158.599319,305.062592 
	C177.310623,305.247314 195.262375,308.914001 211.618317,318.675903 
	C218.530212,322.801208 225.131943,319.162018 224.809998,311.129089 
	C224.377609,300.341278 223.957626,289.457611 222.168625,278.845032 
	C220.188385,267.098114 216.669220,255.610611 214.688995,244.032303 
	C242.004150,240.970215 264.205414,221.006027 271.866211,192.491455 
	C277.988007,169.705185 277.208130,146.770416 273.117188,123.783531 
	C271.311920,113.639885 267.906647,111.105331 258.107819,113.610718 
	C247.993958,116.196671 238.014893,119.309875 227.833389,121.436218 
	C220.534286,97.202667 203.943680,81.224617 182.010376,70.080040 
	C176.291595,67.174255 172.149918,68.682343 169.188980,74.431755 
	C162.108841,88.179688 157.135300,102.627861 156.600784,118.182510 
	C155.992004,135.898010 161.761398,150.854233 177.152740,161.785904 
M600.001587,264.829102 
	C598.806335,250.993942 587.661499,246.238632 574.289978,254.187622 
	C567.149963,246.679306 557.905457,252.170258 549.478882,249.608948 
	C549.478882,262.395508 549.478882,274.265869 549.478882,286.305542 
	C552.074219,286.305542 554.323669,286.305542 557.071350,286.305542 
	C557.071350,279.565704 557.035461,273.112213 557.082336,266.659363 
	C557.121948,261.204254 559.667664,257.994049 563.862549,257.949463 
	C568.130005,257.904114 570.489990,260.902893 570.537476,266.619019 
	C570.591064,273.070770 570.549805,279.523285 570.549805,285.840851 
	C578.346008,287.483459 578.710510,287.218109 578.715942,280.411194 
	C578.719666,275.749359 578.681213,271.087158 578.727600,266.425781 
	C578.783447,260.809540 581.230591,257.810577 585.552856,257.944214 
	C589.616272,258.069855 591.995789,261.095612 592.031189,266.346436 
	C592.075745,272.941620 592.041931,279.537292 592.041931,286.155243 
	C595.065735,286.155243 597.419189,286.155243 600.005493,286.155243 
	C600.005493,279.058594 600.005493,272.407959 600.001587,264.829102 
M514.617798,197.154480 
	C516.347351,192.252472 518.076965,187.350464 519.854797,182.311722 
	C511.685486,181.651230 511.687134,181.651825 509.120056,188.730743 
	C507.163483,194.126160 505.202026,199.519836 502.806580,206.115158 
	C499.920258,198.296509 497.341949,191.860413 495.209381,185.279861 
	C494.288757,182.439194 492.759186,181.928116 490.108368,181.899597 
	C487.417053,181.870651 485.901794,182.521667 484.989624,185.270996 
	C482.798889,191.874237 480.272583,198.366165 477.451691,206.078781 
	C474.959503,199.294083 472.424347,193.706360 470.895233,187.855713 
	C469.400238,182.135666 466.243317,180.876328 460.768433,182.509308 
	C461.078400,183.729233 461.293243,185.002136 461.722870,186.197861 
	C465.092133,195.575317 468.644379,204.890244 471.820160,214.332108 
	C472.875214,217.468933 474.543884,218.149673 477.612488,218.233749 
	C480.977539,218.325912 482.178131,216.907761 483.140228,213.994232 
	C485.136047,207.950211 487.531250,202.038055 490.166229,194.991425 
	C492.930054,202.499664 495.451538,208.647354 497.414795,214.968399 
	C498.453003,218.311111 500.614777,218.028687 503.151215,218.167206 
	C505.877716,218.316116 507.334534,217.522202 508.213593,214.734207 
	C510.009827,209.037445 512.240601,203.477692 514.617798,197.154480 
M332.357483,128.192657 
	C337.078217,129.749512 341.903564,131.061386 346.458344,133.006760 
	C347.897278,133.621307 349.559296,136.044601 349.392090,137.431961 
	C349.225403,138.814987 347.078217,140.477417 345.461029,141.033646 
	C343.529266,141.698090 341.084686,141.847595 339.134033,141.282288 
	C334.770966,140.017868 330.576416,138.171997 326.083374,136.476196 
	C325.095245,138.333878 323.868591,140.639999 322.495361,143.221710 
	C331.125916,149.368210 340.143341,151.541748 350.047577,148.561859 
	C355.741272,146.848816 358.847931,142.387985 359.009125,136.683334 
	C359.170776,130.963257 356.772003,127.140404 350.944916,124.832207 
	C347.106873,123.311905 343.041534,122.364906 339.076813,121.164940 
	C336.316162,120.329407 333.376343,119.569237 333.783325,115.755943 
	C334.207825,111.778969 337.539185,110.875504 340.407257,111.276070 
	C344.964478,111.912537 349.378265,113.575714 354.159271,114.888779 
	C355.036255,113.252571 356.250427,110.987267 357.415833,108.812958 
	C349.695709,103.231049 341.644257,101.615608 334.362549,104.113777 
	C328.691925,106.059212 325.132019,109.916649 324.536499,116.061829 
	C323.987732,121.724678 326.493011,125.651138 332.357483,128.192657 
M352.279053,216.002594 
	C357.616791,213.105347 359.580994,208.451782 358.897675,202.651855 
	C358.253998,197.188858 354.568604,194.255493 349.666046,192.660110 
	C345.886658,191.430222 341.881439,190.751694 338.297546,189.122192 
	C336.427246,188.271805 335.249725,185.897842 333.759277,184.212036 
	C335.630066,182.713333 337.584595,179.864868 339.355560,179.974716 
	C344.227753,180.276978 349.023041,181.819244 354.310059,182.971436 
	C355.049805,181.606201 356.270508,179.353394 357.562195,176.969589 
	C348.843811,171.233276 340.317993,169.314484 331.225311,173.978302 
	C326.296997,176.506119 324.345825,181.037994 324.475952,186.405838 
	C324.605316,191.740387 327.792267,194.970245 332.533875,196.676498 
	C336.271240,198.021393 340.190308,198.857010 343.943665,200.163193 
	C346.723145,201.130478 350.603790,202.301346 349.290802,205.924255 
	C348.587982,207.863556 344.591553,210.017075 342.389252,209.728149 
	C336.872345,209.004288 331.530914,206.943039 325.797943,205.327789 
	C325.028900,206.804611 323.831085,209.104843 322.505493,211.650375 
	C331.767303,217.995346 341.177521,220.094345 352.279053,216.002594 
M463.956635,263.623413 
	C460.984802,279.148743 471.565674,289.075012 487.071259,285.365906 
	C488.062378,285.128815 489.200378,285.359650 490.245911,285.525208 
	C492.702576,285.914215 495.144623,286.395569 497.748260,286.867798 
	C497.748260,270.701630 497.748260,255.503189 497.748260,240.353668 
	C495.116669,240.353668 492.878601,240.353668 490.076599,240.353668 
	C490.076599,244.396301 490.076599,248.114319 490.076599,251.913544 
	C474.722748,248.983688 468.404572,251.722839 463.956635,263.623413 
M351.140533,251.207245 
	C349.688629,247.523178 348.236725,243.839096 346.930542,240.524796 
	C341.161377,238.649689 338.674896,241.023193 336.883667,246.098465 
	C333.243164,256.413422 328.923615,266.488403 324.901154,276.669098 
	C323.724182,279.648041 322.605408,282.649933 321.360016,285.902344 
	C324.781342,285.902344 327.584381,285.902344 329.821503,285.902344 
	C332.233032,281.723694 333.578857,276.234039 336.889008,274.504913 
	C340.518646,272.608917 345.960266,274.181671 350.819397,274.245575 
	C353.977478,279.536621 353.188354,289.797607 364.652618,285.392334 
	C360.306152,274.376434 355.875244,263.146515 351.140533,251.207245 
M376.814728,136.841187 
	C378.290466,136.496429 379.761932,135.877167 381.242706,135.853928 
	C388.041626,135.747116 394.843140,135.806900 401.589111,135.806900 
	C403.858124,125.250168 398.500000,116.111061 389.071381,114.119217 
	C379.610992,112.120659 370.326294,117.618034 368.121185,126.523659 
	C365.498291,137.116608 370.841003,146.478470 380.536255,149.326630 
	C389.085327,151.838089 400.354492,145.467499 400.883392,137.358185 
	C397.581329,138.040833 394.045258,137.934082 391.496094,139.467728 
	C385.615997,143.005325 382.048950,142.886444 376.814728,136.841187 
M508.210327,278.038727 
	C513.642578,285.324463 520.324890,287.959442 528.112610,285.886566 
	C534.025085,284.312805 538.304016,279.860046 539.110779,273.211609 
	C535.130249,274.606293 531.523010,275.413544 528.368469,277.078552 
	C523.157959,279.828674 517.592407,278.220734 515.370728,272.275513 
	C523.831360,272.275513 532.078186,272.275513 540.522400,272.275513 
	C541.479919,264.397888 539.732422,258.066315 533.611572,253.630447 
	C527.880859,249.477203 521.514221,249.090790 515.187927,252.228409 
	C506.513672,256.530487 503.632111,266.768707 508.210327,278.038727 
M394.035522,286.269623 
	C401.483643,285.319061 407.437073,282.250427 410.889893,274.868774 
	C408.167267,273.320801 405.930786,272.049225 403.739105,270.803101 
	C399.276978,277.348724 394.566803,279.457703 388.750763,277.807892 
	C383.242828,276.245483 379.097046,270.230743 378.938538,263.572113 
	C378.770081,256.497894 382.125702,250.818924 387.710663,248.726212 
	C393.622925,246.510864 398.415283,248.399261 403.563721,255.148636 
	C405.699097,253.705673 407.849854,252.252319 410.136627,250.707077 
	C407.691193,245.794022 404.207611,242.393433 399.182281,240.930252 
	C390.290405,238.341309 382.213348,239.989487 375.971619,247.010391 
	C369.429657,254.368988 368.011871,263.044281 371.910187,272.110474 
	C375.863129,281.303741 382.746155,286.645905 394.035522,286.269623 
M594.398804,198.781616 
	C595.252869,202.459747 595.466980,206.454254 597.096130,209.749161 
	C600.337524,216.304932 607.783325,219.270767 615.412292,217.909195 
	C621.652405,216.795502 626.577942,212.196579 627.850769,205.034973 
	C623.772766,206.410904 620.147400,207.101974 617.069397,208.790710 
	C611.746033,211.711319 606.005432,209.986588 603.752991,203.845032 
	C612.169006,203.845032 620.434998,203.845032 629.341614,203.845032 
	C629.025452,200.284912 629.196594,197.074005 628.390320,194.130844 
	C626.278015,186.419937 619.136719,181.687820 610.914062,182.068130 
	C602.256287,182.468567 596.361328,188.176346 594.398804,198.781616 
M454.084808,278.426086 
	C454.084808,269.160522 454.084808,259.894958 454.084808,250.504898 
	C451.265259,250.504898 449.141449,250.432388 447.025177,250.527466 
	C445.276733,250.606033 443.424011,251.366455 441.812897,250.989471 
	C433.995087,249.160172 426.515259,251.633347 422.378845,257.729065 
	C417.977631,264.215027 418.208954,273.483063 422.928894,279.765137 
	C427.405396,285.723206 434.831299,287.862366 442.626709,285.477936 
	C443.661530,285.161469 444.829041,284.662415 445.799896,284.872559 
	C448.388000,285.432861 450.902374,286.333771 454.084900,287.291534 
	C454.084900,283.703064 454.084900,281.549164 454.084808,278.426086 
M544.491882,182.813904 
	C536.490662,180.909042 529.388672,183.448318 525.256226,189.691498 
	C521.164734,195.872772 521.238098,205.039658 525.425659,210.861191 
	C530.012695,217.238083 537.223267,219.535751 545.322510,217.276566 
	C546.492126,216.950317 547.790222,216.673538 548.960266,216.844101 
	C551.502319,217.214645 554.000000,217.889053 556.710571,218.481827 
	C556.710571,205.740280 556.710571,194.042618 556.710571,182.098297 
	C554.535034,182.098297 552.714050,181.980347 550.915588,182.130753 
	C549.033630,182.288147 547.173218,182.703415 544.491882,182.813904 
M614.980103,291.383484 
	C613.359436,294.969727 611.738770,298.555969 610.062744,302.264771 
	C618.240540,303.399414 618.228210,303.393738 621.347351,296.611053 
	C623.360596,292.233154 625.420959,287.876984 627.452515,283.507507 
	C632.553345,272.536255 637.649902,261.563049 642.778381,250.525497 
	C637.079895,248.896469 633.478333,249.913925 631.436523,255.867752 
	C629.442688,261.681946 626.278748,267.094910 623.256042,273.469452 
	C620.298401,267.040466 617.748291,261.480804 615.184143,255.927597 
	C612.071106,249.185745 612.065918,249.188126 604.061707,250.573593 
	C607.865662,258.953949 611.265442,267.440002 615.521301,275.472443 
	C618.396240,280.898651 618.880676,285.660065 614.980103,291.383484 
M399.826385,189.848557 
	C399.205475,189.068771 398.644318,188.231110 397.954224,187.518295 
	C392.191742,181.566208 383.632751,180.307053 376.442230,184.322968 
	C369.395935,188.258331 366.071686,196.966156 368.319122,205.601395 
	C370.250305,213.021530 376.964081,218.051224 385.000214,218.098221 
	C399.228546,218.181412 406.784332,204.455505 399.826385,189.848557 
M446.451324,135.724579 
	C446.583679,134.407211 446.827057,133.090164 446.830658,131.772446 
	C446.856781,122.186111 440.362854,114.633369 431.538025,113.923996 
	C421.397552,113.108871 413.352783,119.102509 412.092407,128.411682 
	C410.655060,139.027954 416.089417,147.400146 425.807404,149.541046 
	C435.067596,151.581070 443.502014,146.203995 446.451324,135.724579 
M469.547607,149.222672 
	C479.624512,151.380615 489.369812,146.335510 490.731537,137.023438 
	C491.818359,129.591476 490.950867,121.873703 490.950867,114.248779 
	C488.609711,114.248779 486.228394,114.248779 483.471405,114.248779 
	C483.471405,119.782150 483.533051,124.926559 483.440155,130.068176 
	C483.404449,132.045303 483.337799,134.123032 482.723206,135.967682 
	C481.407074,139.918137 476.731659,142.520920 472.764923,141.865799 
	C468.333099,141.133865 464.977356,137.596222 464.832642,132.919800 
	C464.639435,126.676353 464.784882,120.422424 464.784882,114.222710 
	C461.684784,114.222710 459.450043,114.222710 457.330750,114.222710 
	C457.117065,114.897400 456.936615,115.204910 456.934143,115.513855 
	C456.891174,120.842392 456.828186,126.171295 456.853577,131.499725 
	C456.897675,140.757050 460.114075,145.459534 469.547607,149.222672 
M414.965881,197.586090 
	C414.965881,204.353271 414.965881,211.120468 414.965881,217.767059 
	C417.971863,217.767059 420.226410,217.767059 422.906158,217.767059 
	C422.906158,212.964279 422.906158,208.495453 422.906158,204.026627 
	C422.906158,199.424362 422.906158,194.822083 422.906158,190.326416 
	C425.087616,190.070297 426.542145,189.899521 428.039703,189.723709 
	C428.039703,187.120468 428.039703,184.744324 428.039703,182.457230 
	C426.025818,182.055374 424.438629,181.738663 422.851410,181.421951 
	C422.852966,180.924866 422.854523,180.427795 422.856079,179.930710 
	C424.598358,179.496826 426.340607,179.062958 428.104797,178.623627 
	C428.104797,176.246323 428.104797,173.994690 428.104797,171.803116 
	C418.488220,170.304413 416.723755,171.617645 414.252594,181.780869 
	C412.677063,182.030548 411.101532,182.280212 409.589539,182.519821 
	C409.589539,185.142883 409.589539,187.399658 409.589539,189.735443 
	C411.497253,189.956497 413.083801,190.140335 414.965851,190.358414 
	C414.965851,192.661987 414.965851,194.637955 414.965881,197.586090 
M569.746399,218.097443 
	C571.528015,218.097443 573.309631,218.097443 575.668457,218.097443 
	C575.668457,211.472870 575.463074,205.356567 575.723022,199.260101 
	C576.015503,192.400482 581.742920,188.653366 588.258606,190.721756 
	C589.280396,191.046143 590.319641,191.315582 591.409790,191.627258 
	C592.263123,182.510651 589.784790,180.416245 581.093872,182.547012 
	C580.128113,182.783783 579.184753,183.126602 578.209961,183.306442 
	C577.460327,183.444733 576.643188,183.567429 575.916016,183.413635 
	C573.341858,182.869202 570.793457,182.203064 567.592712,181.427307 
	C567.592712,193.855347 567.578247,205.270554 567.646301,216.685257 
	C567.648987,217.136398 568.438477,217.582855 569.746399,218.097443 
M440.505646,177.817368 
	C441.769775,182.607056 437.360382,181.627365 435.418457,182.638214 
	C435.418457,185.242264 435.418457,187.493118 435.418457,189.675385 
	C437.224457,189.970139 438.658997,190.204285 440.684937,190.534943 
	C440.684937,199.721420 440.684937,208.772537 440.684937,217.853394 
	C443.589355,217.853394 445.858185,217.853394 448.746857,217.853394 
	C448.746857,208.544891 448.746857,199.481522 448.746857,190.558655 
	C450.894165,190.098312 452.421844,189.770798 453.824249,189.470154 
	C453.824249,186.930786 453.824249,184.801575 453.824249,182.489166 
	C452.108551,182.164902 450.550018,181.870331 448.937836,181.565613 
	C448.751648,179.389221 448.585083,177.441895 448.298065,174.086533 
	C445.392090,175.157013 442.963959,176.051468 440.505646,177.817368 
M511.999146,140.460083 
	C511.999146,128.064438 511.999146,115.668793 511.999146,103.236420 
	C509.043518,103.236420 506.780731,103.236420 504.263245,103.236420 
	C504.263245,118.824738 504.263245,134.178467 504.263245,149.668457 
	C506.906464,149.668457 509.280365,149.668457 511.999146,149.668457 
	C511.999146,146.710495 511.999146,144.078430 511.999146,140.460083 
z"/>
<path fill="#70C275" opacity="1.000000" stroke="none" 
	d="
M213.820267,244.010147 
	C216.669220,255.610611 220.188385,267.098114 222.168625,278.845032 
	C223.957626,289.457611 224.377609,300.341278 224.809998,311.129089 
	C225.131943,319.162018 218.530212,322.801208 211.618317,318.675903 
	C195.262375,308.914001 177.310623,305.247314 158.599319,305.062592 
	C139.096710,304.870056 120.948059,300.733490 105.183807,288.722198 
	C88.530098,276.033203 78.643784,258.694427 72.042740,239.273575 
	C64.184624,216.154312 61.689171,192.237961 62.103481,167.949066 
	C62.214569,161.436554 65.051987,158.078568 70.772888,157.978775 
	C104.528755,157.389984 136.114426,164.938843 164.915543,184.047012 
	C163.713516,189.858154 162.341705,194.990387 160.626099,200.059845 
	C135.728561,182.747330 108.124451,175.439728 78.159279,174.061142 
	C78.457428,179.707779 78.620529,184.522797 78.981094,189.322968 
	C80.447845,208.850204 83.871521,227.960571 92.122704,245.885025 
	C103.468712,270.532501 121.542465,286.127319 149.618195,288.296570 
	C162.360428,289.281067 175.120850,290.392792 187.757141,292.239563 
	C194.512314,293.226868 201.021179,295.899323 208.402527,298.031128 
	C207.561813,291.370026 207.362274,285.155884 205.902847,279.253265 
	C203.370819,269.012543 200.059357,258.964539 197.059113,248.455963 
	C194.661118,243.678375 192.278778,239.280518 189.968384,234.521179 
	C185.691757,227.773666 181.343201,221.387650 177.335281,214.947235 
	C182.532364,211.259354 183.867065,205.858246 185.277176,200.445465 
	C192.691299,210.150146 199.806076,219.754105 206.985062,229.696533 
	C209.306259,234.693390 211.563263,239.351761 213.820267,244.010147 
z"/>
<path fill="#70C275" opacity="1.000000" stroke="none" 
	d="
M177.143402,161.052979 
	C161.761398,150.854233 155.992004,135.898010 156.600784,118.182510 
	C157.135300,102.627861 162.108841,88.179688 169.188980,74.431755 
	C172.149918,68.682343 176.291595,67.174255 182.010376,70.080040 
	C203.943680,81.224617 220.534286,97.202667 227.953674,122.201721 
	C228.782806,128.383057 229.491669,133.798889 230.167679,139.656723 
	C230.136185,154.857193 225.960876,168.586060 219.599533,181.707687 
	C216.317383,188.477844 209.360870,188.913025 204.921982,182.929642 
	C202.948181,180.269043 200.831528,177.714401 199.107346,174.956909 
	C201.679916,170.068665 203.924850,165.335159 206.471710,160.765350 
	C207.694214,161.564713 208.614792,162.200363 210.182327,163.282745 
	C211.196533,158.509811 212.104309,154.237808 213.316193,149.811737 
	C213.430573,143.146194 213.240875,136.634705 213.032837,129.726334 
	C208.888733,110.560928 196.928452,97.921532 180.750656,87.753082 
	C176.507294,97.851418 173.409714,107.646523 172.859131,118.217262 
	C172.171524,131.418503 176.687057,141.912949 187.810913,149.452271 
	C184.140015,153.501587 180.641708,157.277283 177.143402,161.052979 
z"/>
<path fill="#B5D66F" opacity="1.000000" stroke="none" 
	d="
M230.200531,139.214722 
	C229.491669,133.798889 228.782806,128.383057 228.025406,122.579819 
	C238.014893,119.309875 247.993958,116.196671 258.107819,113.610718 
	C267.906647,111.105331 271.311920,113.639885 273.117188,123.783531 
	C277.208130,146.770416 277.988007,169.705185 271.866211,192.491455 
	C264.205414,221.006027 242.004150,240.970215 214.254639,244.021225 
	C211.563263,239.351761 209.306259,234.693390 207.377594,229.558624 
	C209.654861,228.690598 211.600098,228.279388 213.553299,227.910385 
	C232.601608,224.311844 246.299362,213.987000 253.567810,195.785294 
	C260.058350,179.531662 260.910919,162.545273 259.570251,145.345703 
	C259.180023,140.339355 258.419067,135.361893 257.724487,129.496735 
	C247.964691,132.942657 239.082611,136.078690 230.200531,139.214722 
z"/>
<path fill="#B5D570" opacity="1.000000" stroke="none" 
	d="
M177.148071,161.419434 
	C180.641708,157.277283 184.140015,153.501587 188.115295,149.293640 
	C194.736893,143.958160 200.881516,139.054932 207.019348,134.597931 
	C206.672028,140.696762 207.020935,146.219482 209.899216,151.512970 
	C207.484543,153.852234 205.232864,155.913605 202.690796,158.137344 
	C199.256668,162.401672 196.112930,166.503632 192.605804,170.659485 
	C185.815918,177.841324 181.555527,186.023712 179.839539,195.860138 
	C178.313568,202.130066 177.081436,208.127625 175.585266,214.431580 
	C175.321213,223.399612 175.321213,232.061279 175.321213,241.314590 
	C178.268311,239.979111 180.613739,238.916275 182.980087,238.258911 
	C185.124969,243.198456 187.248932,247.732529 189.142975,252.526779 
	C184.259201,255.981812 179.475555,259.005646 174.984467,262.414886 
	C169.396072,266.657043 162.498398,264.532684 161.195099,257.656097 
	C160.144943,252.115204 159.630112,246.464828 159.043533,240.845718 
	C157.617004,227.180359 158.627502,213.616730 160.969894,200.122620 
	C162.341705,194.990387 163.713516,189.858154 165.122681,184.318527 
	C169.157608,176.536057 173.155167,169.160980 177.148071,161.419434 
z"/>
<path fill="#848689" opacity="1.000000" stroke="none" 
	d="
M600.003540,265.293213 
	C600.005493,272.407959 600.005493,279.058594 600.005493,286.155243 
	C597.419189,286.155243 595.065735,286.155243 592.041931,286.155243 
	C592.041931,279.537292 592.075745,272.941620 592.031189,266.346436 
	C591.995789,261.095612 589.616272,258.069855 585.552856,257.944214 
	C581.230591,257.810577 578.783447,260.809540 578.727600,266.425781 
	C578.681213,271.087158 578.719666,275.749359 578.715942,280.411194 
	C578.710510,287.218109 578.346008,287.483459 570.549805,285.840851 
	C570.549805,279.523285 570.591064,273.070770 570.537476,266.619019 
	C570.489990,260.902893 568.130005,257.904114 563.862549,257.949463 
	C559.667664,257.994049 557.121948,261.204254 557.082336,266.659363 
	C557.035461,273.112213 557.071350,279.565704 557.071350,286.305542 
	C554.323669,286.305542 552.074219,286.305542 549.478882,286.305542 
	C549.478882,274.265869 549.478882,262.395508 549.478882,249.608948 
	C557.905457,252.170258 567.149963,246.679306 574.289978,254.187622 
	C587.661499,246.238632 598.806335,250.993942 600.003540,265.293213 
z"/>
<path fill="#838588" opacity="1.000000" stroke="none" 
	d="
M514.455078,197.507996 
	C512.240601,203.477692 510.009827,209.037445 508.213593,214.734207 
	C507.334534,217.522202 505.877716,218.316116 503.151215,218.167206 
	C500.614777,218.028687 498.453003,218.311111 497.414795,214.968399 
	C495.451538,208.647354 492.930054,202.499664 490.166229,194.991425 
	C487.531250,202.038055 485.136047,207.950211 483.140228,213.994232 
	C482.178131,216.907761 480.977539,218.325912 477.612488,218.233749 
	C474.543884,218.149673 472.875214,217.468933 471.820160,214.332108 
	C468.644379,204.890244 465.092133,195.575317 461.722870,186.197861 
	C461.293243,185.002136 461.078400,183.729233 460.768433,182.509308 
	C466.243317,180.876328 469.400238,182.135666 470.895233,187.855713 
	C472.424347,193.706360 474.959503,199.294083 477.451691,206.078781 
	C480.272583,198.366165 482.798889,191.874237 484.989624,185.270996 
	C485.901794,182.521667 487.417053,181.870651 490.108368,181.899597 
	C492.759186,181.928116 494.288757,182.439194 495.209381,185.279861 
	C497.341949,191.860413 499.920258,198.296509 502.806580,206.115158 
	C505.202026,199.519836 507.163483,194.126160 509.120056,188.730743 
	C511.687134,181.651825 511.685486,181.651230 519.854797,182.311722 
	C518.076965,187.350464 516.347351,192.252472 514.455078,197.507996 
z"/>
<path fill="#292627" opacity="1.000000" stroke="none" 
	d="
M331.995087,128.078949 
	C326.493011,125.651138 323.987732,121.724678 324.536499,116.061829 
	C325.132019,109.916649 328.691925,106.059212 334.362549,104.113777 
	C341.644257,101.615608 349.695709,103.231049 357.415833,108.812958 
	C356.250427,110.987267 355.036255,113.252571 354.159271,114.888779 
	C349.378265,113.575714 344.964478,111.912537 340.407257,111.276070 
	C337.539185,110.875504 334.207825,111.778969 333.783325,115.755943 
	C333.376343,119.569237 336.316162,120.329407 339.076813,121.164940 
	C343.041534,122.364906 347.106873,123.311905 350.944916,124.832207 
	C356.772003,127.140404 359.170776,130.963257 359.009125,136.683334 
	C358.847931,142.387985 355.741272,146.848816 350.047577,148.561859 
	C340.143341,151.541748 331.125916,149.368210 322.495361,143.221710 
	C323.868591,140.639999 325.095245,138.333878 326.083374,136.476196 
	C330.576416,138.171997 334.770966,140.017868 339.134033,141.282288 
	C341.084686,141.847595 343.529266,141.698090 345.461029,141.033646 
	C347.078217,140.477417 349.225403,138.814987 349.392090,137.431961 
	C349.559296,136.044601 347.897278,133.621307 346.458344,133.006760 
	C341.903564,131.061386 337.078217,129.749512 331.995087,128.078949 
z"/>
<path fill="#2A2627" opacity="1.000000" stroke="none" 
	d="
M351.917603,216.142166 
	C341.177521,220.094345 331.767303,217.995346 322.505493,211.650375 
	C323.831085,209.104843 325.028900,206.804611 325.797943,205.327789 
	C331.530914,206.943039 336.872345,209.004288 342.389252,209.728149 
	C344.591553,210.017075 348.587982,207.863556 349.290802,205.924255 
	C350.603790,202.301346 346.723145,201.130478 343.943665,200.163193 
	C340.190308,198.857010 336.271240,198.021393 332.533875,196.676498 
	C327.792267,194.970245 324.605316,191.740387 324.475952,186.405838 
	C324.345825,181.037994 326.296997,176.506119 331.225311,173.978302 
	C340.317993,169.314484 348.843811,171.233276 357.562195,176.969589 
	C356.270508,179.353394 355.049805,181.606201 354.310059,182.971436 
	C349.023041,181.819244 344.227753,180.276978 339.355560,179.974716 
	C337.584595,179.864868 335.630066,182.713333 333.759277,184.212036 
	C335.249725,185.897842 336.427246,188.271805 338.297546,189.122192 
	C341.881439,190.751694 345.886658,191.430222 349.666046,192.660110 
	C354.568604,194.255493 358.253998,197.188858 358.897675,202.651855 
	C359.580994,208.451782 357.616791,213.105347 351.917603,216.142166 
z"/>
<path fill="#838588" opacity="1.000000" stroke="none" 
	d="
M464.011902,263.226654 
	C468.404572,251.722839 474.722748,248.983688 490.076599,251.913544 
	C490.076599,248.114319 490.076599,244.396301 490.076599,240.353668 
	C492.878601,240.353668 495.116669,240.353668 497.748260,240.353668 
	C497.748260,255.503189 497.748260,270.701630 497.748260,286.867798 
	C495.144623,286.395569 492.702576,285.914215 490.245911,285.525208 
	C489.200378,285.359650 488.062378,285.128815 487.071259,285.365906 
	C471.565674,289.075012 460.984802,279.148743 464.011902,263.226654 
M488.930359,274.040558 
	C489.355469,271.954498 490.153595,269.865387 490.136505,267.782959 
	C490.082733,261.221252 484.278870,256.839966 478.362579,258.661438 
	C473.825043,260.058441 471.534515,263.337677 471.262451,267.881714 
	C471.002045,272.231079 472.843048,275.729767 476.902466,277.600586 
	C481.442108,279.692657 485.304016,278.335297 488.930359,274.040558 
z"/>
<path fill="#282425" opacity="1.000000" stroke="none" 
	d="
M351.292419,251.561905 
	C355.875244,263.146515 360.306152,274.376434 364.652618,285.392334 
	C353.188354,289.797607 353.977478,279.536621 350.819397,274.245575 
	C345.960266,274.181671 340.518646,272.608917 336.889008,274.504913 
	C333.578857,276.234039 332.233032,281.723694 329.821503,285.902344 
	C327.584381,285.902344 324.781342,285.902344 321.360016,285.902344 
	C322.605408,282.649933 323.724182,279.648041 324.901154,276.669098 
	C328.923615,266.488403 333.243164,256.413422 336.883667,246.098465 
	C338.674896,241.023193 341.161377,238.649689 346.930542,240.524796 
	C348.236725,243.839096 349.688629,247.523178 351.292419,251.561905 
M347.514435,263.397980 
	C346.159210,259.887726 344.803986,256.377502 342.994476,251.690643 
	C340.793854,257.552582 339.093781,262.081238 337.231415,267.042114 
	C340.740601,267.042114 343.555786,267.207306 346.321960,266.912598 
	C346.926636,266.848175 347.356506,265.142822 347.514435,263.397980 
z"/>
<path fill="#292627" opacity="1.000000" stroke="none" 
	d="
M376.969879,137.240479 
	C382.048950,142.886444 385.615997,143.005325 391.496094,139.467728 
	C394.045258,137.934082 397.581329,138.040833 400.883392,137.358185 
	C400.354492,145.467499 389.085327,151.838089 380.536255,149.326630 
	C370.841003,146.478470 365.498291,137.116608 368.121185,126.523659 
	C370.326294,117.618034 379.610992,112.120659 389.071381,114.119217 
	C398.500000,116.111061 403.858124,125.250168 401.589111,135.806900 
	C394.843140,135.806900 388.041626,135.747116 381.242706,135.853928 
	C379.761932,135.877167 378.290466,136.496429 376.969879,137.240479 
M391.486237,124.170670 
	C384.826843,119.866302 378.924286,121.288033 376.937103,127.949089 
	C379.644012,127.949089 382.265869,127.949089 384.887695,127.949089 
	C387.629639,127.949089 390.371552,127.949089 393.863800,127.949089 
	C392.958252,126.397812 392.495453,125.605011 391.486237,124.170670 
z"/>
<path fill="#838588" opacity="1.000000" stroke="none" 
	d="
M508.049133,277.690063 
	C503.632111,266.768707 506.513672,256.530487 515.187927,252.228409 
	C521.514221,249.090790 527.880859,249.477203 533.611572,253.630447 
	C539.732422,258.066315 541.479919,264.397888 540.522400,272.275513 
	C532.078186,272.275513 523.831360,272.275513 515.370728,272.275513 
	C517.592407,278.220734 523.157959,279.828674 528.368469,277.078552 
	C531.523010,275.413544 535.130249,274.606293 539.110779,273.211609 
	C538.304016,279.860046 534.025085,284.312805 528.112610,285.886566 
	C520.324890,287.959442 513.642578,285.324463 508.049133,277.690063 
M519.814697,264.734314 
	C523.775574,264.734314 527.736450,264.734314 532.426941,264.734314 
	C529.886719,259.907196 526.775635,257.855957 522.692993,258.204895 
	C519.240540,258.500031 516.124756,259.995026 514.879028,264.312317 
	C516.438965,264.474823 517.681396,264.604279 519.814697,264.734314 
z"/>
<path fill="#292526" opacity="1.000000" stroke="none" 
	d="
M393.629272,286.297668 
	C382.746155,286.645905 375.863129,281.303741 371.910187,272.110474 
	C368.011871,263.044281 369.429657,254.368988 375.971619,247.010391 
	C382.213348,239.989487 390.290405,238.341309 399.182281,240.930252 
	C404.207611,242.393433 407.691193,245.794022 410.136627,250.707077 
	C407.849854,252.252319 405.699097,253.705673 403.563721,255.148636 
	C398.415283,248.399261 393.622925,246.510864 387.710663,248.726212 
	C382.125702,250.818924 378.770081,256.497894 378.938538,263.572113 
	C379.097046,270.230743 383.242828,276.245483 388.750763,277.807892 
	C394.566803,279.457703 399.276978,277.348724 403.739105,270.803101 
	C405.930786,272.049225 408.167267,273.320801 410.889893,274.868774 
	C407.437073,282.250427 401.483643,285.319061 393.629272,286.297668 
z"/>
<path fill="#838588" opacity="1.000000" stroke="none" 
	d="
M594.443604,198.376938 
	C596.361328,188.176346 602.256287,182.468567 610.914062,182.068130 
	C619.136719,181.687820 626.278015,186.419937 628.390320,194.130844 
	C629.196594,197.074005 629.025452,200.284912 629.341614,203.845032 
	C620.434998,203.845032 612.169006,203.845032 603.752991,203.845032 
	C606.005432,209.986588 611.746033,211.711319 617.069397,208.790710 
	C620.147400,207.101974 623.772766,206.410904 627.850769,205.034973 
	C626.577942,212.196579 621.652405,216.795502 615.412292,217.909195 
	C607.783325,219.270767 600.337524,216.304932 597.096130,209.749161 
	C595.466980,206.454254 595.252869,202.459747 594.443604,198.376938 
M609.656372,196.132980 
	C613.031250,196.132980 616.406189,196.132980 620.636414,196.132980 
	C618.122375,191.471191 615.057068,189.588226 610.957092,190.114578 
	C607.728149,190.529114 604.666382,191.756699 603.969421,196.133026 
	C605.779785,196.133026 607.253662,196.133026 609.656372,196.132980 
z"/>
<path fill="#838588" opacity="1.000000" stroke="none" 
	d="
M454.084839,278.910706 
	C454.084900,281.549164 454.084900,283.703064 454.084900,287.291534 
	C450.902374,286.333771 448.388000,285.432861 445.799896,284.872559 
	C444.829041,284.662415 443.661530,285.161469 442.626709,285.477936 
	C434.831299,287.862366 427.405396,285.723206 422.928894,279.765137 
	C418.208954,273.483063 417.977631,264.215027 422.378845,257.729065 
	C426.515259,251.633347 433.995087,249.160172 441.812897,250.989471 
	C443.424011,251.366455 445.276733,250.606033 447.025177,250.527466 
	C449.141449,250.432388 451.265259,250.504898 454.084808,250.504898 
	C454.084808,259.894958 454.084808,269.160522 454.084839,278.910706 
M427.882660,264.679108 
	C425.867157,273.227631 431.378052,280.089752 438.814484,278.239044 
	C443.392609,277.099701 445.898987,274.160217 446.151123,269.385132 
	C446.445618,263.807983 444.147278,260.044861 439.239105,258.654877 
	C434.095825,257.198303 430.616791,259.637024 427.882660,264.679108 
z"/>
<path fill="#838588" opacity="1.000000" stroke="none" 
	d="
M544.897583,182.909943 
	C547.173218,182.703415 549.033630,182.288147 550.915588,182.130753 
	C552.714050,181.980347 554.535034,182.098297 556.710571,182.098297 
	C556.710571,194.042618 556.710571,205.740280 556.710571,218.481827 
	C554.000000,217.889053 551.502319,217.214645 548.960266,216.844101 
	C547.790222,216.673538 546.492126,216.950317 545.322510,217.276566 
	C537.223267,219.535751 530.012695,217.238083 525.425659,210.861191 
	C521.238098,205.039658 521.164734,195.872772 525.256226,189.691498 
	C529.388672,183.448318 536.490662,180.909042 544.897583,182.909943 
M549.139648,201.242294 
	C550.228882,194.637650 544.583252,190.198608 540.453796,189.995728 
	C535.326416,189.743820 530.967163,193.434372 530.214905,198.859573 
	C529.526367,203.825256 532.791748,208.884628 537.379883,209.960983 
	C542.895386,211.254852 547.126892,208.402008 549.139648,201.242294 
z"/>
<path fill="#848689" opacity="1.000000" stroke="none" 
	d="
M615.132812,291.032654 
	C618.880676,285.660065 618.396240,280.898651 615.521301,275.472443 
	C611.265442,267.440002 607.865662,258.953949 604.061707,250.573593 
	C612.065918,249.188126 612.071106,249.185745 615.184143,255.927597 
	C617.748291,261.480804 620.298401,267.040466 623.256042,273.469452 
	C626.278748,267.094910 629.442688,261.681946 631.436523,255.867752 
	C633.478333,249.913925 637.079895,248.896469 642.778381,250.525497 
	C637.649902,261.563049 632.553345,272.536255 627.452515,283.507507 
	C625.420959,287.876984 623.360596,292.233154 621.347351,296.611053 
	C618.228210,303.393738 618.240540,303.399414 610.062744,302.264771 
	C611.738770,298.555969 613.359436,294.969727 615.132812,291.032654 
z"/>
<path fill="#848689" opacity="1.000000" stroke="none" 
	d="
M400.008301,190.176270 
	C406.784332,204.455505 399.228546,218.181412 385.000214,218.098221 
	C376.964081,218.051224 370.250305,213.021530 368.319122,205.601395 
	C366.071686,196.966156 369.395935,188.258331 376.442230,184.322968 
	C383.632751,180.307053 392.191742,181.566208 397.954224,187.518295 
	C398.644318,188.231110 399.205475,189.068771 400.008301,190.176270 
M378.979401,192.454254 
	C375.395721,195.634598 374.723267,199.966339 376.502899,203.790924 
	C377.717255,206.400604 380.790802,208.899643 383.577118,209.845535 
	C387.697723,211.244415 391.360535,209.194504 393.509644,205.214188 
	C395.793671,200.984100 395.090271,196.056183 391.728668,192.856583 
	C387.959869,189.269424 383.859253,189.012772 378.979401,192.454254 
z"/>
<path fill="#838588" opacity="1.000000" stroke="none" 
	d="
M446.340820,136.122833 
	C443.502014,146.203995 435.067596,151.581070 425.807404,149.541046 
	C416.089417,147.400146 410.655060,139.027954 412.092407,128.411682 
	C413.352783,119.102509 421.397552,113.108871 431.538025,113.923996 
	C440.362854,114.633369 446.856781,122.186111 446.830658,131.772446 
	C446.827057,133.090164 446.583679,134.407211 446.340820,136.122833 
M421.072357,137.067139 
	C422.079010,138.157089 422.933533,139.463043 424.119476,140.298462 
	C428.548462,143.418442 434.727600,141.932526 437.505493,137.216492 
	C440.554382,132.040298 438.646759,125.161263 433.469604,122.662842 
	C428.555328,120.291275 422.401245,122.413345 420.775604,127.659126 
	C419.958313,130.296295 420.718597,133.422363 421.072357,137.067139 
z"/>
<path fill="#838588" opacity="1.000000" stroke="none" 
	d="
M469.154022,149.138031 
	C460.114075,145.459534 456.897675,140.757050 456.853577,131.499725 
	C456.828186,126.171295 456.891174,120.842392 456.934143,115.513855 
	C456.936615,115.204910 457.117065,114.897400 457.330750,114.222710 
	C459.450043,114.222710 461.684784,114.222710 464.784882,114.222710 
	C464.784882,120.422424 464.639435,126.676353 464.832642,132.919800 
	C464.977356,137.596222 468.333099,141.133865 472.764923,141.865799 
	C476.731659,142.520920 481.407074,139.918137 482.723206,135.967682 
	C483.337799,134.123032 483.404449,132.045303 483.440155,130.068176 
	C483.533051,124.926559 483.471405,119.782150 483.471405,114.248779 
	C486.228394,114.248779 488.609711,114.248779 490.950867,114.248779 
	C490.950867,121.873703 491.818359,129.591476 490.731537,137.023438 
	C489.369812,146.335510 479.624512,151.380615 469.154022,149.138031 
z"/>
<path fill="#848689" opacity="1.000000" stroke="none" 
	d="
M414.965881,197.100006 
	C414.965851,194.637955 414.965851,192.661987 414.965851,190.358414 
	C413.083801,190.140335 411.497253,189.956497 409.589539,189.735443 
	C409.589539,187.399658 409.589539,185.142883 409.589539,182.519821 
	C411.101532,182.280212 412.677063,182.030548 414.253967,181.785034 
	C416.723755,171.617645 418.488220,170.304413 428.104797,171.803116 
	C428.104797,173.994690 428.104797,176.246323 428.104797,178.623627 
	C426.340607,179.062958 424.598358,179.496826 422.856079,179.930710 
	C422.854523,180.427795 422.852966,180.924866 422.851410,181.421951 
	C424.438629,181.738663 426.025818,182.055374 428.039703,182.457230 
	C428.039703,184.744324 428.039703,187.120468 428.039703,189.723709 
	C426.542145,189.899521 425.087616,190.070297 422.906158,190.326416 
	C422.906158,194.822083 422.906158,199.424362 422.906158,204.026627 
	C422.906158,208.495453 422.906158,212.964279 422.906158,217.767059 
	C420.226410,217.767059 417.971863,217.767059 414.965881,217.767059 
	C414.965881,211.120468 414.965881,204.353271 414.965881,197.100006 
z"/>
<path fill="#838588" opacity="1.000000" stroke="none" 
	d="
M569.303894,218.064484 
	C568.438477,217.582855 567.648987,217.136398 567.646301,216.685257 
	C567.578247,205.270554 567.592712,193.855347 567.592712,181.427307 
	C570.793457,182.203064 573.341858,182.869202 575.916016,183.413635 
	C576.643188,183.567429 577.460327,183.444733 578.209961,183.306442 
	C579.184753,183.126602 580.128113,182.783783 581.093872,182.547012 
	C589.784790,180.416245 592.263123,182.510651 591.409790,191.627258 
	C590.319641,191.315582 589.280396,191.046143 588.258606,190.721756 
	C581.742920,188.653366 576.015503,192.400482 575.723022,199.260101 
	C575.463074,205.356567 575.668457,211.472870 575.668457,218.097443 
	C573.309631,218.097443 571.528015,218.097443 569.303894,218.064484 
z"/>
<path fill="#86888B" opacity="1.000000" stroke="none" 
	d="
M440.520752,177.381653 
	C442.963959,176.051468 445.392090,175.157013 448.298065,174.086533 
	C448.585083,177.441895 448.751648,179.389221 448.937836,181.565613 
	C450.550018,181.870331 452.108551,182.164902 453.824249,182.489166 
	C453.824249,184.801575 453.824249,186.930786 453.824249,189.470154 
	C452.421844,189.770798 450.894165,190.098312 448.746857,190.558655 
	C448.746857,199.481522 448.746857,208.544891 448.746857,217.853394 
	C445.858185,217.853394 443.589355,217.853394 440.684937,217.853394 
	C440.684937,208.772537 440.684937,199.721420 440.684937,190.534943 
	C438.658997,190.204285 437.224457,189.970139 435.418457,189.675385 
	C435.418457,187.493118 435.418457,185.242264 435.418457,182.638214 
	C437.360382,181.627365 441.769775,182.607056 440.520752,177.381653 
z"/>
<path fill="#808285" opacity="1.000000" stroke="none" 
	d="
M511.999146,140.953217 
	C511.999146,144.078430 511.999146,146.710495 511.999146,149.668457 
	C509.280365,149.668457 506.906464,149.668457 504.263245,149.668457 
	C504.263245,134.178467 504.263245,118.824738 504.263245,103.236420 
	C506.780731,103.236420 509.043518,103.236420 511.999146,103.236420 
	C511.999146,115.668793 511.999146,128.064438 511.999146,140.953217 
z"/>
<path fill="#FEFFFE" opacity="1.000000" stroke="none" 
	d="
M160.626099,200.059845 
	C158.627502,213.616730 157.617004,227.180359 159.043533,240.845718 
	C159.630112,246.464828 160.144943,252.115204 161.195099,257.656097 
	C162.498398,264.532684 169.396072,266.657043 174.984467,262.414886 
	C179.475555,259.005646 184.259201,255.981812 189.476654,252.449280 
	C192.385086,251.019623 194.729919,249.927673 197.074753,248.835724 
	C200.059357,258.964539 203.370819,269.012543 205.902847,279.253265 
	C207.362274,285.155884 207.561813,291.370026 208.402527,298.031128 
	C201.021179,295.899323 194.512314,293.226868 187.757141,292.239563 
	C175.120850,290.392792 162.360428,289.281067 149.618195,288.296570 
	C121.542465,286.127319 103.468712,270.532501 92.122704,245.885025 
	C83.871521,227.960571 80.447845,208.850204 78.981094,189.322968 
	C78.620529,184.522797 78.457428,179.707779 78.159279,174.061142 
	C108.124451,175.439728 135.728561,182.747330 160.626099,200.059845 
z"/>
<path fill="#FEFFFE" opacity="1.000000" stroke="none" 
	d="
M180.133377,195.587769 
	C181.555527,186.023712 185.815918,177.841324 192.880112,170.878021 
	C195.271790,172.398956 197.025757,173.755310 198.779709,175.111664 
	C200.831528,177.714401 202.948181,180.269043 204.921982,182.929642 
	C209.360870,188.913025 216.317383,188.477844 219.599533,181.707687 
	C225.960876,168.586060 230.136185,154.857193 230.167679,139.656723 
	C239.082611,136.078690 247.964691,132.942657 257.724487,129.496735 
	C258.419067,135.361893 259.180023,140.339355 259.570251,145.345703 
	C260.910919,162.545273 260.058350,179.531662 253.567810,195.785294 
	C246.299362,213.987000 232.601608,224.311844 213.553299,227.910385 
	C211.600098,228.279388 209.654861,228.690598 207.313400,229.220154 
	C199.806076,219.754105 192.691299,210.150146 185.008362,200.230774 
	C183.004593,198.472824 181.568985,197.030304 180.133377,195.587769 
z"/>
<path fill="#FCFCFC" opacity="1.000000" stroke="none" 
	d="
M182.959183,237.853424 
	C180.613739,238.916275 178.268311,239.979111 175.321213,241.314590 
	C175.321213,232.061279 175.321213,223.399612 175.691071,214.670227 
	C176.372162,214.735535 176.683411,214.868591 176.994644,215.001633 
	C181.343201,221.387650 185.691757,227.773666 189.611115,234.553055 
	C187.107681,235.915436 185.033432,236.884430 182.959183,237.853424 
z"/>
<path fill="#9FC46D" opacity="1.000000" stroke="none" 
	d="
M182.980087,238.258911 
	C185.033432,236.884430 187.107681,235.915436 189.539185,234.914551 
	C192.278778,239.280518 194.661118,243.678375 197.059113,248.455978 
	C194.729919,249.927673 192.385086,251.019623 189.706573,252.189087 
	C187.248932,247.732529 185.124969,243.198456 182.980087,238.258911 
z"/>
<path fill="#69B46F" opacity="1.000000" stroke="none" 
	d="
M177.335281,214.947235 
	C176.683411,214.868591 176.372162,214.735535 175.955124,214.363846 
	C177.081436,208.127625 178.313568,202.130066 179.839539,195.860138 
	C181.568985,197.030304 183.004593,198.472824 184.709015,200.130035 
	C183.867065,205.858246 182.532364,211.259354 177.335281,214.947235 
z"/>
<path fill="#FDFEFD" opacity="1.000000" stroke="none" 
	d="
M207.026154,134.151703 
	C200.881516,139.054932 194.736893,143.958160 188.287888,149.020035 
	C176.687057,141.912949 172.171524,131.418503 172.859131,118.217262 
	C173.409714,107.646523 176.507294,97.851418 180.750656,87.753082 
	C196.928452,97.921532 208.888733,110.560928 212.734985,129.858109 
	C210.645706,131.641754 208.835922,132.896729 207.026154,134.151703 
z"/>
<path fill="#69B46F" opacity="1.000000" stroke="none" 
	d="
M199.107346,174.956909 
	C197.025757,173.755310 195.271790,172.398956 193.243500,170.824097 
	C196.112930,166.503632 199.256668,162.401672 202.968109,158.256088 
	C204.413803,159.008865 205.291779,159.805252 206.169769,160.601654 
	C203.924850,165.335159 201.679916,170.068665 199.107346,174.956909 
z"/>
<path fill="#9FC46D" opacity="1.000000" stroke="none" 
	d="
M207.019348,134.597931 
	C208.835922,132.896729 210.645706,131.641754 212.753326,130.255005 
	C213.240875,136.634705 213.430573,143.146194 212.993622,149.845764 
	C211.598709,150.434265 210.830460,150.834671 210.062210,151.235077 
	C207.020935,146.219482 206.672028,140.696762 207.019348,134.597931 
z"/>
<path fill="#FBFCFC" opacity="1.000000" stroke="none" 
	d="
M209.899216,151.512970 
	C210.830460,150.834671 211.598709,150.434265 212.689514,149.999847 
	C212.104309,154.237808 211.196533,158.509811 210.182327,163.282745 
	C208.614792,162.200363 207.694214,161.564713 206.471710,160.765350 
	C205.291779,159.805252 204.413803,159.008865 203.258499,158.093719 
	C205.232864,155.913605 207.484543,153.852234 209.899216,151.512970 
z"/>
<path fill="#FBFCFC" opacity="1.000000" stroke="none" 
	d="
M488.721252,274.374939 
	C485.304016,278.335297 481.442108,279.692657 476.902466,277.600586 
	C472.843048,275.729767 471.002045,272.231079 471.262451,267.881714 
	C471.534515,263.337677 473.825043,260.058441 478.362579,258.661438 
	C484.278870,256.839966 490.082733,261.221252 490.136505,267.782959 
	C490.153595,269.865387 489.355469,271.954498 488.721252,274.374939 
z"/>
<path fill="#F0F0F0" opacity="1.000000" stroke="none" 
	d="
M347.690674,263.795593 
	C347.356506,265.142822 346.926636,266.848175 346.321960,266.912598 
	C343.555786,267.207306 340.740601,267.042114 337.231415,267.042114 
	C339.093781,262.081238 340.793854,257.552582 342.994476,251.690643 
	C344.803986,256.377502 346.159210,259.887726 347.690674,263.795593 
z"/>
<path fill="#F0F0F0" opacity="1.000000" stroke="none" 
	d="
M391.759460,124.491440 
	C392.495453,125.605011 392.958252,126.397812 393.863800,127.949089 
	C390.371552,127.949089 387.629639,127.949089 384.887695,127.949089 
	C382.265869,127.949089 379.644012,127.949089 376.937103,127.949089 
	C378.924286,121.288033 384.826843,119.866302 391.759460,124.491440 
z"/>
<path fill="#F0F0F0" opacity="1.000000" stroke="none" 
	d="
M519.369263,264.734009 
	C517.681396,264.604279 516.438965,264.474823 514.879028,264.312317 
	C516.124756,259.995026 519.240540,258.500031 522.692993,258.204895 
	C526.775635,257.855957 529.886719,259.907196 532.426941,264.734314 
	C527.736450,264.734314 523.775574,264.734314 519.369263,264.734009 
z"/>
<path fill="#FBFCFC" opacity="1.000000" stroke="none" 
	d="
M609.191956,196.132996 
	C607.253662,196.133026 605.779785,196.133026 603.969421,196.133026 
	C604.666382,191.756699 607.728149,190.529114 610.957092,190.114578 
	C615.057068,189.588226 618.122375,191.471191 620.636414,196.132980 
	C616.406189,196.132980 613.031250,196.132980 609.191956,196.132996 
z"/>
<path fill="#FBFCFC" opacity="1.000000" stroke="none" 
	d="
M427.997070,264.308350 
	C430.616791,259.637024 434.095825,257.198303 439.239105,258.654877 
	C444.147278,260.044861 446.445618,263.807983 446.151123,269.385132 
	C445.898987,274.160217 443.392609,277.099701 438.814484,278.239044 
	C431.378052,280.089752 425.867157,273.227631 427.997070,264.308350 
z"/>
<path fill="#FCFCFC" opacity="1.000000" stroke="none" 
	d="
M549.109253,201.657944 
	C547.126892,208.402008 542.895386,211.254852 537.379883,209.960983 
	C532.791748,208.884628 529.526367,203.825256 530.214905,198.859573 
	C530.967163,193.434372 535.326416,189.743820 540.453796,189.995728 
	C544.583252,190.198608 550.228882,194.637650 549.109253,201.657944 
z"/>
<path fill="#FCFCFC" opacity="1.000000" stroke="none" 
	d="
M379.267639,192.191864 
	C383.859253,189.012772 387.959869,189.269424 391.728668,192.856583 
	C395.090271,196.056183 395.793671,200.984100 393.509644,205.214188 
	C391.360535,209.194504 387.697723,211.244415 383.577118,209.845535 
	C380.790802,208.899643 377.717255,206.400604 376.502899,203.790924 
	C374.723267,199.966339 375.395721,195.634598 379.267639,192.191864 
z"/>
<path fill="#FCFCFC" opacity="1.000000" stroke="none" 
	d="
M420.918945,136.697235 
	C420.718597,133.422363 419.958313,130.296295 420.775604,127.659126 
	C422.401245,122.413345 428.555328,120.291275 433.469604,122.662842 
	C438.646759,125.161263 440.554382,132.040298 437.505493,137.216492 
	C434.727600,141.932526 428.548462,143.418442 424.119476,140.298462 
	C422.933533,139.463043 422.079010,138.157089 420.918945,136.697235 
z"/>
</svg>