<svg version="1.1" id="Layer_1" xmlns="http://www.w3.org/2000/svg" xmlns:xlink="http://www.w3.org/1999/xlink" x="0px" y="0px"
	 width="100%" viewBox="0 0 219 130" enable-background="new 0 0 219 130" xml:space="preserve">
<path fill="#F5F5F5" opacity="1.000000" stroke="none" 
	d="
M147.000000,131.000000 
	C98.000015,131.000000 49.500023,131.000000 1.000026,131.000000 
	C1.000017,87.666687 1.000017,44.333378 1.000009,1.000049 
	C73.999962,1.000033 146.999924,1.000033 219.999908,1.000016 
	C219.999939,44.333282 219.999939,87.666565 219.999969,130.999924 
	C195.833328,131.000000 171.666672,131.000000 147.000000,131.000000 
M93.054108,60.701061 
	C92.889191,61.764538 92.724281,62.828014 92.559006,63.893814 
	C99.137878,63.893814 105.499947,63.893814 112.362129,64.959198 
	C108.577133,65.328804 104.795868,65.964012 101.006432,66.017128 
	C90.563828,66.163506 90.562477,66.067123 88.778564,76.732468 
	C91.752686,77.117065 94.753456,78.006790 95.597420,73.487114 
	C95.767281,72.577492 97.546875,71.610596 98.743332,71.315964 
	C102.737976,70.332283 106.804832,69.641869 111.006630,68.806778 
	C110.455460,70.958374 109.808014,73.485847 108.994591,76.549309 
	C109.323990,76.643234 109.653397,76.737160 110.907623,76.981407 
	C114.732758,76.987343 118.580246,77.233063 122.371895,76.879700 
	C123.861649,76.740860 125.226517,75.261963 126.648262,74.393333 
	C126.418854,73.984032 126.189445,73.574738 125.960037,73.165443 
	C122.561623,72.990593 119.163200,72.815750 115.764778,72.640907 
	C115.772881,72.066322 115.780983,71.491737 115.789078,70.917152 
	C118.314468,70.917152 120.840141,70.940811 123.365196,70.911842 
	C127.604187,70.863213 127.604027,70.849129 127.883003,66.053810 
	C123.394058,66.053810 118.915382,66.102425 114.438568,66.032112 
	C112.381615,65.999802 110.441841,65.677040 113.489067,64.067474 
	C117.436317,64.116356 121.400734,63.954430 125.325920,64.274139 
	C129.159088,64.586349 130.709305,63.082062 130.440826,58.932777 
	C126.560287,58.932777 122.789497,58.932777 119.461334,58.444439 
	C124.314545,56.364040 119.798721,54.080235 119.463860,51.767521 
	C119.040398,54.356472 112.014496,54.423321 116.253983,59.129856 
	C115.184746,60.534267 114.115509,61.938675 112.644081,64.241730 
	C112.317307,64.211403 111.990524,64.181068 111.640366,63.281616 
	C109.878235,62.184216 108.214577,60.405861 106.333092,60.133747 
	C102.624329,59.597378 98.794769,59.896252 94.988831,59.187927 
	C94.971481,58.746593 94.954140,58.305260 95.422813,57.365887 
	C99.503479,55.743164 103.584152,54.120438 107.664818,52.497715 
	C96.813995,51.994038 88.030800,56.263737 79.927872,64.206535 
	C77.980537,58.755535 73.682106,58.612480 68.076920,59.160191 
	C64.589325,59.151260 61.083282,59.363369 57.619057,59.074322 
	C53.772491,58.753384 52.260147,60.332890 52.385517,64.216721 
	C57.066444,64.216721 61.551392,64.382347 66.008179,64.101341 
	C67.135452,64.030273 68.172867,62.534157 69.853569,61.107731 
	C73.190292,63.366394 76.606216,65.311470 81.579826,64.239395 
	C86.175957,65.583900 88.491798,61.688160 92.417694,59.962673 
	C92.659294,59.990913 92.900887,60.019157 93.054108,60.701061 
M151.385239,56.061333 
	C150.460953,55.291286 149.536682,54.521244 148.455231,53.620251 
	C148.223877,53.986794 147.702759,54.812450 147.181625,55.638111 
	C147.142395,55.095676 147.103149,54.553242 147.063904,54.010807 
	C142.378616,54.010807 137.693314,54.010807 132.490570,53.816635 
	C131.367035,53.816635 130.243500,53.816635 129.119949,53.816635 
	C129.162231,54.271843 129.204529,54.727047 129.246811,55.182255 
	C130.501907,55.117725 131.756989,55.053200 133.102570,55.626282 
	C134.067078,56.744713 135.031586,57.863144 135.290375,59.132378 
	C133.908813,60.433338 132.527252,61.734299 130.341110,63.792892 
	C138.399155,63.792892 144.688980,63.792892 150.978806,63.792892 
	C151.145905,63.184315 151.313019,62.575737 151.480133,61.967159 
	C148.655334,60.968395 145.830551,59.969631 143.387894,58.464676 
	C146.666168,59.091198 149.944427,59.717724 153.132095,61.011127 
	C152.908585,61.926456 152.685059,62.841782 152.338943,64.259186 
	C158.301117,64.259186 163.908310,64.429588 169.488159,64.115028 
	C170.600616,64.052315 171.714096,62.210484 172.565262,61.004253 
	C172.714523,60.792725 171.560913,59.661800 171.281403,58.400402 
	C172.049408,57.834583 172.817429,57.268764 173.415649,56.828030 
	C170.488770,56.234200 167.943268,55.732059 165.404236,55.199139 
	C161.880127,54.459469 158.383591,53.480572 154.822479,53.105827 
	C154.000320,53.019314 152.964081,54.967018 152.002182,55.998543 
	C152.002182,55.998543 151.982544,56.022308 151.385239,56.061333 
M49.490692,76.967369 
	C49.653873,76.927467 49.817051,76.887566 50.910072,76.995148 
	C53.737305,77.000854 56.567978,77.098846 59.391064,76.993469 
	C65.697166,76.758072 72.493187,78.193245 77.176956,72.046722 
	C77.305359,71.878220 77.771576,71.967133 78.361389,71.907661 
	C80.115997,75.432716 82.326447,78.573807 87.187378,76.559799 
	C85.699348,73.145836 84.262543,69.849388 82.650963,66.151955 
	C80.889053,66.151955 78.076538,66.151955 75.264030,66.151955 
	C75.499146,66.437340 75.734261,66.722725 75.969376,67.008110 
	C72.844925,69.957588 69.720474,72.907066 66.461296,75.983719 
	C65.798492,74.764847 65.384666,74.003845 64.516891,72.995865 
	C64.350014,73.038597 64.183128,73.081322 63.117863,72.967415 
	C60.430382,72.967415 57.742897,72.967415 55.055416,72.967415 
	C58.590385,68.538071 66.245010,74.883423 67.844757,66.277344 
	C62.066204,66.277344 56.818577,66.277344 50.999630,66.277344 
	C50.329994,69.836494 49.677132,73.306496 49.490692,76.967369 
M128.575623,73.665657 
	C128.325958,74.683151 128.076294,75.700653 127.807671,76.795425 
	C130.416306,76.795425 132.537140,76.795425 134.608459,76.795425 
	C135.352844,75.207741 136.009933,73.806252 136.944092,71.813797 
	C139.581680,76.675514 143.120987,78.128769 148.234818,76.429504 
	C146.719101,74.448967 145.305511,72.601883 144.117767,71.049881 
	C146.611008,69.571121 148.623001,68.377800 150.634979,67.184486 
	C146.045822,66.075737 142.005341,66.509552 138.098083,65.973053 
	C132.378235,65.187660 129.348007,67.202911 128.575623,73.665657 
M154.218872,76.587723 
	C160.747604,77.477203 160.747604,77.477203 163.620895,66.435066 
	C159.568146,65.101639 157.074097,66.408295 156.082336,70.666458 
	C155.674271,72.418564 154.855515,74.075027 154.218872,76.587723 
M111.857674,51.990280 
	C111.582794,52.101776 111.300728,52.199535 111.039192,52.336502 
	C110.987709,52.363453 111.015442,52.541668 111.006645,52.650116 
	C111.943420,52.718494 112.880196,52.786869 113.816978,52.855244 
	C113.812195,52.630676 113.807411,52.406109 113.802628,52.181541 
	C113.356384,52.114067 112.910149,52.046593 111.857674,51.990280 
z"/>
<path fill="#2E2522" opacity="1.000000" stroke="none" 
	d="
M109.160561,76.013313 
	C109.808014,73.485847 110.455460,70.958374 111.006630,68.806778 
	C106.804832,69.641869 102.737976,70.332283 98.743332,71.315964 
	C97.546875,71.610596 95.767281,72.577492 95.597420,73.487114 
	C94.753456,78.006790 91.752686,77.117065 88.778564,76.732468 
	C90.562477,66.067123 90.563828,66.163506 101.006432,66.017128 
	C104.795868,65.964012 108.577133,65.328804 112.060532,64.452621 
	C111.758926,63.946037 111.663750,64.150742 111.663750,64.150742 
	C111.990524,64.181068 112.317307,64.211403 112.833694,63.755043 
	C113.023315,63.268353 112.998070,63.194626 112.998070,63.194626 
	C110.441841,65.677040 112.381615,65.999802 114.438568,66.032112 
	C118.915382,66.102425 123.394058,66.053810 127.883003,66.053810 
	C127.604027,70.849129 127.604187,70.863213 123.365196,70.911842 
	C120.840141,70.940811 118.314468,70.917152 115.789078,70.917152 
	C115.780983,71.491737 115.772881,72.066322 115.764778,72.640907 
	C119.163200,72.815750 122.561623,72.990593 125.960037,73.165443 
	C126.189445,73.574738 126.418854,73.984032 126.648262,74.393333 
	C125.226517,75.261963 123.861649,76.740860 122.371895,76.879700 
	C118.580246,77.233063 114.732758,76.987343 110.349274,76.732346 
	C109.625397,76.266823 109.415276,76.110161 109.160561,76.013313 
z"/>
<path fill="#332927" opacity="1.000000" stroke="none" 
	d="
M64.970848,73.242844 
	C65.384666,74.003845 65.798492,74.764847 66.461296,75.983719 
	C69.720474,72.907066 72.844925,69.957588 75.969376,67.008110 
	C75.734261,66.722725 75.499146,66.437340 75.264030,66.151955 
	C78.076538,66.151955 80.889053,66.151955 82.650963,66.151955 
	C84.262543,69.849388 85.699348,73.145836 87.187378,76.559799 
	C82.326447,78.573807 80.115997,75.432716 78.361389,71.907661 
	C77.771576,71.967133 77.305359,71.878220 77.176956,72.046722 
	C72.493187,78.193245 65.697166,76.758072 59.391064,76.993469 
	C56.567978,77.098846 53.737305,77.000854 50.360153,76.781021 
	C49.496239,76.355820 49.234249,76.425690 49.024273,76.776497 
	C49.677132,73.306496 50.329994,69.836494 50.999630,66.277344 
	C56.818577,66.277344 62.066204,66.277344 67.844757,66.277344 
	C66.245010,74.883423 58.590385,68.538071 55.055416,72.967415 
	C57.742897,72.967415 60.430382,72.967415 63.647293,73.189484 
	C64.176720,73.411545 64.602852,73.541901 64.602852,73.541901 
	C64.602852,73.541901 64.970848,73.242844 64.970848,73.242844 
z"/>
<path fill="#2C2320" opacity="1.000000" stroke="none" 
	d="
M128.699799,73.306267 
	C129.348007,67.202911 132.378235,65.187660 138.098083,65.973053 
	C142.005341,66.509552 146.045822,66.075737 150.634979,67.184486 
	C148.623001,68.377800 146.611008,69.571121 144.117767,71.049881 
	C145.305511,72.601883 146.719101,74.448967 148.234818,76.429504 
	C143.120987,78.128769 139.581680,76.675514 136.944092,71.813797 
	C136.009933,73.806252 135.352844,75.207741 134.608459,76.795425 
	C132.537140,76.795425 130.416306,76.795425 127.807671,76.795425 
	C128.076294,75.700653 128.325958,74.683151 128.699799,73.306267 
z"/>
<path fill="#DAD8D7" opacity="1.000000" stroke="none" 
	d="
M153.222702,60.344250 
	C149.944427,59.717724 146.666168,59.091198 142.770386,58.833744 
	C140.100616,59.129066 138.048355,59.055321 135.996094,58.981571 
	C135.031586,57.863144 134.067078,56.744713 133.050278,55.314739 
	C132.997986,55.003197 132.987015,55.018356 133.160583,54.928635 
	C133.398041,54.726601 133.542847,54.552975 133.512085,54.512402 
	C133.364578,54.317776 133.169601,54.159130 132.995300,53.993240 
	C132.999130,53.998768 133.008011,54.010807 133.008011,54.010807 
	C137.693314,54.010807 142.378616,54.010807 147.063904,54.010807 
	C147.103149,54.553242 147.142395,55.095676 147.181625,55.638111 
	C147.702759,54.812450 148.223877,53.986794 148.455231,53.620251 
	C149.536682,54.521244 150.460953,55.291286 151.745193,56.181297 
	C152.199615,56.345654 152.294067,56.390041 152.388535,56.434425 
	C152.267822,56.282494 152.147095,56.130558 152.026367,55.978622 
	C152.964081,54.967018 154.000320,53.019314 154.822479,53.105827 
	C158.383591,53.480572 161.880127,54.459469 165.404236,55.199139 
	C167.943268,55.732059 170.488770,56.234200 173.415649,56.828030 
	C172.817429,57.268764 172.049408,57.834583 170.701691,58.790794 
	C167.079773,59.116180 164.037537,59.051174 160.831268,58.685547 
	C158.941101,57.389187 157.214981,56.393440 155.488846,55.397697 
	C155.015015,56.682068 154.541199,57.966434 154.021820,59.496052 
	C153.830673,60.074249 153.579483,60.275234 153.222702,60.344250 
z"/>
<path fill="#322826" opacity="1.000000" stroke="none" 
	d="
M153.177399,60.677689 
	C153.579483,60.275234 153.830673,60.074249 154.452423,59.445858 
	C156.950821,59.095669 158.973068,59.040916 160.995316,58.986168 
	C164.037537,59.051174 167.079773,59.116180 170.565491,59.068329 
	C171.560913,59.661800 172.714523,60.792725 172.565262,61.004253 
	C171.714096,62.210484 170.600616,64.052315 169.488159,64.115028 
	C163.908310,64.429588 158.301117,64.259186 152.338943,64.259186 
	C152.685059,62.841782 152.908585,61.926456 153.177399,60.677689 
z"/>
<path fill="#302724" opacity="1.000000" stroke="none" 
	d="
M135.643234,59.056976 
	C138.048355,59.055321 140.100616,59.129066 142.579315,59.086838 
	C145.830551,59.969631 148.655334,60.968395 151.480133,61.967159 
	C151.313019,62.575737 151.145905,63.184315 150.978806,63.792892 
	C144.688980,63.792892 138.399155,63.792892 130.341110,63.792892 
	C132.527252,61.734299 133.908813,60.433338 135.643234,59.056976 
z"/>
<path fill="#312825" opacity="1.000000" stroke="none" 
	d="
M69.251564,61.692871 
	C68.172867,62.534157 67.135452,64.030273 66.008179,64.101341 
	C61.551392,64.382347 57.066444,64.216721 52.385517,64.216721 
	C52.260147,60.332890 53.772491,58.753384 57.619057,59.074322 
	C61.083282,59.363369 64.589325,59.151260 68.553360,59.651157 
	C69.103729,60.659039 69.177643,61.175953 69.251564,61.692871 
z"/>
<path fill="#489F57" opacity="1.000000" stroke="none" 
	d="
M91.697258,59.836815 
	C88.491798,61.688160 86.175957,65.583900 81.250946,64.105110 
	C80.922073,63.970825 80.804230,64.126999 80.804230,64.126999 
	C88.030800,56.263737 96.813995,51.994038 107.664818,52.497715 
	C103.584152,54.120438 99.503479,55.743164 94.854477,57.650520 
	C93.423180,58.569038 92.560219,59.202927 91.697258,59.836815 
z"/>
<path fill="#332927" opacity="1.000000" stroke="none" 
	d="
M113.243568,63.631050 
	C112.998070,63.194626 113.023315,63.268353 113.034790,63.305717 
	C114.115509,61.938675 115.184746,60.534267 116.954445,59.131325 
	C118.109512,59.066124 118.564110,58.999451 119.018715,58.932777 
	C122.789497,58.932777 126.560287,58.932777 130.440826,58.932777 
	C130.709305,63.082062 129.159088,64.586349 125.325920,64.274139 
	C121.400734,63.954430 117.436317,64.116356 113.243568,63.631050 
z"/>
<path fill="#271D1A" opacity="1.000000" stroke="none" 
	d="
M111.652054,63.716179 
	C111.663750,64.150742 111.758926,63.946037 111.810471,63.919926 
	C105.499947,63.893814 99.137878,63.893814 92.559006,63.893814 
	C92.724281,62.828014 92.889191,61.764538 93.413704,60.366261 
	C94.187256,59.970863 94.601219,59.910267 95.015175,59.849670 
	C98.794769,59.896252 102.624329,59.597378 106.333092,60.133747 
	C108.214577,60.405861 109.878235,62.184216 111.652054,63.716179 
z"/>
<path fill="#332927" opacity="1.000000" stroke="none" 
	d="
M154.221222,76.181358 
	C154.855515,74.075027 155.674271,72.418564 156.082336,70.666458 
	C157.074097,66.408295 159.568146,65.101639 163.621063,66.435356 
	C160.747604,77.477203 160.747604,77.477203 154.221222,76.181358 
z"/>
<path fill="#352C29" opacity="1.000000" stroke="none" 
	d="
M80.366051,64.166763 
	C80.804230,64.126999 80.922073,63.970825 80.897156,63.930656 
	C76.606216,65.311470 73.190292,63.366394 69.552567,61.400299 
	C69.177643,61.175953 69.103729,60.659039 69.009247,59.751625 
	C73.682106,58.612480 77.980537,58.755535 80.366051,64.166763 
z"/>
<path fill="#E4E5E3" opacity="1.000000" stroke="none" 
	d="
M119.240021,58.688610 
	C118.564110,58.999451 118.109512,59.066124 117.319847,59.038391 
	C112.014496,54.423321 119.040398,54.356472 119.463860,51.767521 
	C119.798721,54.080235 124.314545,56.364040 119.240021,58.688610 
z"/>
<path fill="#DAD8D7" opacity="1.000000" stroke="none" 
	d="
M133.005035,54.995934 
	C131.756989,55.053200 130.501907,55.117725 129.246811,55.182255 
	C129.204529,54.727047 129.162231,54.271843 129.119949,53.816635 
	C130.243500,53.816635 131.367035,53.816635 132.749298,53.913719 
	C133.008011,54.010807 132.999130,53.998768 132.986755,54.250908 
	C132.978592,54.674820 132.982803,54.846588 132.987015,55.018356 
	C132.987015,55.018356 132.997986,55.003197 133.005035,54.995934 
z"/>
<path fill="#E4E5E3" opacity="1.000000" stroke="none" 
	d="
M95.001999,59.518799 
	C94.601219,59.910267 94.187256,59.970863 93.457893,60.039429 
	C92.900887,60.019157 92.659294,59.990913 92.057480,59.899742 
	C92.560219,59.202927 93.423180,58.569038 94.611465,57.899536 
	C94.954140,58.305260 94.971481,58.746593 95.001999,59.518799 
z"/>
<path fill="#E4E5E3" opacity="1.000000" stroke="none" 
	d="
M112.160797,51.984699 
	C112.910149,52.046593 113.356384,52.114067 113.802628,52.181541 
	C113.807411,52.406109 113.812195,52.630676 113.816978,52.855244 
	C112.880196,52.786869 111.943420,52.718494 111.006645,52.650116 
	C111.015442,52.541668 110.987709,52.363453 111.039192,52.336502 
	C111.300728,52.199535 111.582794,52.101776 112.160797,51.984699 
z"/>
<path fill="#312825" opacity="1.000000" stroke="none" 
	d="
M64.743866,73.119354 
	C64.970848,73.242844 64.602852,73.541901 64.602852,73.541901 
	C64.602852,73.541901 64.176720,73.411545 64.096481,73.267792 
	C64.183128,73.081322 64.350014,73.038597 64.743866,73.119354 
z"/>
<path fill="#312825" opacity="1.000000" stroke="none" 
	d="
M49.257484,76.871933 
	C49.234249,76.425690 49.496239,76.355820 49.895233,76.707275 
	C49.817051,76.887566 49.653873,76.927467 49.257484,76.871933 
z"/>
<path fill="#2E2523" opacity="1.000000" stroke="none" 
	d="
M109.077576,76.281311 
	C109.415276,76.110161 109.625397,76.266823 109.886856,76.657188 
	C109.653397,76.737160 109.323990,76.643234 109.077576,76.281311 
z"/>
<path fill="#F5F5F5" opacity="1.000000" stroke="none" 
	d="
M160.831268,58.685547 
	C158.973068,59.040916 156.950821,59.095669 154.497971,59.200611 
	C154.541199,57.966434 155.015015,56.682068 155.488846,55.397697 
	C157.214981,56.393440 158.941101,57.389187 160.831268,58.685547 
z"/>
<path fill="#F5F5F5" opacity="1.000000" stroke="none" 
	d="
M152.014282,55.988583 
	C152.147095,56.130558 152.267822,56.282494 152.388535,56.434425 
	C152.294067,56.390041 152.199615,56.345654 152.043854,56.161789 
	C151.982544,56.022308 152.002182,55.998543 152.014282,55.988583 
z"/>
<path fill="#F5F5F5" opacity="1.000000" stroke="none" 
	d="
M133.160583,54.928635 
	C132.982803,54.846588 132.978592,54.674820 132.982925,54.245377 
	C133.169601,54.159130 133.364578,54.317776 133.512085,54.512402 
	C133.542847,54.552975 133.398041,54.726601 133.160583,54.928635 
z"/>
</svg>